<?xml version="1.0" encoding="utf-8"?>
<!-- Generator: Adobe Illustrator 19.0.0, SVG Export Plug-In . SVG Version: 6.00 Build 0)  -->
<svg version="1.1" xmlns="http://www.w3.org/2000/svg" xmlns:xlink="http://www.w3.org/1999/xlink" x="0px" y="0px"
	 viewBox="0 0 1600 1368" style="enable-background:new 0 0 1600 1368;" xml:space="preserve">
<style type="text/css">
	.st0{display:none;}
	.st1{display:inline;fill:#3F3F3F;}
	.st2{fill:#967F58;}
	.st3{fill:none;stroke:#967F58;stroke-width:4;stroke-miterlimit:10;}
</style>
<g id="Layer_2" class="st0">
	<rect id="XMLID_1_" x="-899" y="275" class="st1" width="3500" height="1000"/>
</g>
<g id="Layer_1">
	<circle id="XMLID_13_" class="st2" cx="169.4" cy="190.3" r="10.2"/>
</g>
<g id="Layer_6">
	<line id="XMLID_11_" class="st3" x1="599.5" y1="631.8" x2="882.6" y2="58.1"/>
</g>
<g id="Layer_5">
	<line id="XMLID_12_" class="st3" x1="817" y1="190" x2="165" y2="190"/>
</g>
<g id="Layer_4">
	<g id="XMLID_16_">
		<path id="XMLID_57_" class="st2" d="M365.7,933.6h9.3l-0.2,1.3h-2.5c-0.7,0-1.2,0.3-1.5,1L348.9,979h-2.3l-3.6-35.9L324.3,979H322
			l-3.5-43.1c-0.1-0.7-0.5-1-1.1-1h-2.5l0.2-1.3h12l-0.2,1.3h-3.4l3,35.6l16.3-31.2l-0.4-3.4c-0.1-0.7-0.5-1-1.1-1h-2.5l0.2-1.3h12
			l-0.2,1.3h-3.5l3.6,35.4l17.9-35.4h-3.4L365.7,933.6z"/>
		<path id="XMLID_59_" class="st2" d="M391.2,948.9c1.3,1.2,1.9,3,1.9,5.3c0,2.3-0.9,4.3-2.7,5.9c-3,2.9-7.5,4.3-13.5,4.3
			c-1.8,0-3.3-0.1-4.6-0.4v-1.4c1.7,0.2,3.1,0.4,4.2,0.4c4,0,7.1-1,9.3-3c2.2-2,3.3-4.2,3.3-6.6c0-1.3-0.3-2.4-1-3.2
			c-0.7-0.9-1.8-1.3-3.5-1.3c-1.6,0-3.2,0.7-4.9,2.2c-1.7,1.5-3,3.3-3.9,5.5c-1.9,4.7-2.9,8.7-2.9,12.1c0,6.3,1.9,9.5,5.8,9.5
			c4.8,0,8.2-2.6,10.4-7.8l1.2,0.3c-1.2,2.9-2.8,5.2-5,6.8c-2.2,1.6-4.6,2.4-7.4,2.4c-2.7,0-5-1-6.9-3c-1.9-2-2.8-4.7-2.8-8.1
			s0.6-6.7,1.9-9.9c1.3-3.2,3.3-6,6-8.3c2.7-2.3,5.9-3.5,9.4-3.5C388,947,389.9,947.6,391.2,948.9z"/>
		<path id="XMLID_61_" class="st2" d="M439.1,964.5c-1.5,5.7-2.2,9.4-2.2,11c0,1.6,0.6,2.4,1.8,2.4c0.9,0,1.9-0.6,3-1.8
			c1.1-1.2,2-3,2.7-5.2l1.2,0.3c-2.1,5.9-4.8,8.8-8.1,8.8c-3,0-4.5-1.8-4.5-5.4c0-0.7,0.1-1.9,0.4-3.5H433c-3,5.9-6.4,8.9-10.4,8.9
			c-2.3,0-4.1-1-5.7-3c-1.5-2-2.3-4.4-2.3-7.3s0.4-5.6,1.2-8.1c0.8-2.5,1.8-4.8,3.2-7c1.4-2.2,3.2-4,5.5-5.3s4.8-2.1,7.6-2.1
			c3.6,0,6.4,1.5,8.4,4.5l2.2-3.9l1,0.7C442.2,953.4,440.6,958.7,439.1,964.5z M424.3,977.7c2,0,4.1-1.6,6.1-4.7
			c2.4-3.6,4.5-9.5,6.6-17.6c0.4-1.9,0.8-3.3,1-4.2c-1.7-1.6-3.6-2.4-5.8-2.4c-2.2,0-4.1,0.7-5.8,2.2c-1.7,1.5-3,3.4-4,5.6
			c-2,4.6-3,9-3,13c0,2.7,0.4,4.7,1.3,6C421.7,977,422.8,977.7,424.3,977.7z"/>
		<path id="XMLID_64_" class="st2" d="M462.7,947.7l1,0.7c-2.3,5.3-4.3,11.4-6,18.2h0.6l1.2-3.2c2.3-6.1,4.5-10.4,6.7-12.8
			c2.2-2.4,4.1-3.6,5.8-3.6s2.8,0.5,3.6,1.6c0.8,1.1,1.2,2.4,1.2,4.1c0,1.7-0.3,3.1-0.9,4.4c-0.6,1.2-1.5,1.9-2.7,1.9
			c-1.2,0-2.1-0.4-2.9-1.2c0.5-0.6,0.9-1.5,1.4-2.7c0.4-1.2,0.6-2.3,0.6-3.2c0-1.4-0.6-2.1-1.7-2.1c-1.2,0-2.7,1.2-4.5,3.5
			c-3.9,5.1-7.2,13.6-9.9,25.6l-5,0.4l7.1-29.1l-4.6,0.4l-0.1-1.2C456.7,949,459.8,948.4,462.7,947.7z"/>
		<path id="XMLID_66_" class="st2" d="M500.5,948.9c1.3,1.2,1.9,3,1.9,5.3c0,2.3-0.9,4.3-2.7,5.9c-3,2.9-7.5,4.3-13.5,4.3
			c-1.8,0-3.3-0.1-4.6-0.4v-1.4c1.7,0.2,3.1,0.4,4.2,0.4c4,0,7.1-1,9.3-3c2.2-2,3.3-4.2,3.3-6.6c0-1.3-0.3-2.4-1-3.2
			c-0.7-0.9-1.8-1.3-3.5-1.3c-1.6,0-3.2,0.7-4.9,2.2c-1.7,1.5-3,3.3-3.9,5.5c-1.9,4.7-2.9,8.7-2.9,12.1c0,6.3,1.9,9.5,5.8,9.5
			c4.8,0,8.2-2.6,10.4-7.8l1.2,0.3c-1.2,2.9-2.8,5.2-5,6.8c-2.2,1.6-4.6,2.4-7.4,2.4s-5-1-6.9-3c-1.9-2-2.8-4.7-2.8-8.1
			s0.6-6.7,1.9-9.9c1.3-3.2,3.3-6,6-8.3c2.7-2.3,5.9-3.5,9.4-3.5C497.3,947,499.2,947.6,500.5,948.9z"/>
		<path id="XMLID_68_" class="st2" d="M548.4,964.5c-1.5,5.7-2.2,9.4-2.2,11c0,1.6,0.6,2.4,1.8,2.4c0.9,0,1.9-0.6,3-1.8
			c1.1-1.2,2-3,2.7-5.2l1.2,0.3c-2.1,5.9-4.8,8.8-8.1,8.8c-3,0-4.5-1.8-4.5-5.4c0-0.7,0.1-1.9,0.4-3.5h-0.4c-3,5.9-6.4,8.9-10.4,8.9
			c-2.3,0-4.1-1-5.7-3c-1.5-2-2.3-4.4-2.3-7.3s0.4-5.6,1.2-8.1c0.8-2.5,1.8-4.8,3.2-7c1.4-2.2,3.2-4,5.5-5.3
			c2.3-1.4,4.8-2.1,7.6-2.1c3.6,0,6.4,1.5,8.4,4.5l2.2-3.9l1,0.7C551.5,953.4,549.9,958.7,548.4,964.5z M533.6,977.7
			c2,0,4.1-1.6,6.1-4.7c2.4-3.6,4.5-9.5,6.6-17.6c0.4-1.9,0.8-3.3,1-4.2c-1.7-1.6-3.6-2.4-5.8-2.4c-2.2,0-4.1,0.7-5.8,2.2
			c-1.7,1.5-3,3.4-4,5.6c-2,4.6-3,9-3,13c0,2.7,0.4,4.7,1.3,6C531,977,532.1,977.7,533.6,977.7z"/>
		<path id="XMLID_71_" class="st2" d="M583.1,974.8l11.4,2.6c2.5,0.6,4.3,1.4,5.3,2.3c1.1,1,1.6,2.3,1.6,4.1c0,2.8-1.5,5.4-4.6,7.9
			c-3,2.5-6.5,3.7-10.4,3.7c-3.9,0-7-0.9-9.5-2.7c-2.4-1.8-3.6-3.9-3.6-6.3c0-1.7,0.6-3.3,1.7-4.8s2.8-2.8,5-3.9l1.4,0.4
			c-1.4,0.7-2.5,1.8-3.3,3.3c-0.8,1.5-1.2,3-1.2,4.6c0,2.7,0.9,4.7,2.7,6c1.8,1.3,4.1,2,6.9,2s5.4-0.8,7.8-2.4
			c2.4-1.6,3.6-3.5,3.6-5.8c0-2.3-1.5-3.7-4.4-4.4l-12.4-2.7c-1.4-0.3-2.5-0.9-3.2-1.9c-0.8-1-1.2-2.2-1.2-3.7c0-1.4,0.6-2.8,1.8-4
			c1.2-1.2,2.9-1.8,5-1.8h7.3l-0.2,1h-7.1c-1,0-1.8,0.3-2.4,0.9c-0.6,0.6-0.9,1.4-0.9,2.2C580.2,973.3,581.2,974.4,583.1,974.8z
			 M582,960.5c0-3.6,1.3-6.7,3.8-9.4c2.5-2.7,5.6-4.1,9.3-4.1c2.6,0,4.6,0.7,6.2,2.1s2.3,3.3,2.3,5.8c0,4-1.3,7.3-3.9,9.8
			c-2.6,2.5-5.6,3.7-9.1,3.7c-2.6,0-4.7-0.7-6.3-2.1C582.8,964.9,582,963,582,960.5z M595,948.4c-2.6,0-4.8,1.5-6.5,4.4
			c-1.7,2.9-2.5,5.5-2.5,7.7c0,2.3,0.4,3.9,1.3,4.9c0.8,1,2,1.5,3.3,1.5c2.1,0,4.1-1.2,6-3.6c1.9-2.4,2.9-5.4,2.9-9.1
			c0-1.8-0.4-3.3-1.3-4.3S596.4,948.4,595,948.4z M595.2,948l-0.1-1c1.3,0,2.5-0.3,3.4-1c0.9-0.6,1.4-1.5,1.4-2.6
			c0-1.1-0.8-2.1-2.3-3c0.8-1.6,1.7-2.4,2.8-2.4s1.9,0.3,2.4,0.9c0.6,0.6,0.8,1.4,0.8,2.4c0,1.7-0.8,3.2-2.3,4.6
			C599.8,947.3,597.8,948,595.2,948z"/>
		<path id="XMLID_76_" class="st2" d="M620.7,947.7l1,0.7c-2.3,5.3-4.3,11.4-6,18.2h0.6l1.2-3.2c2.3-6.1,4.5-10.4,6.7-12.8
			c2.2-2.4,4.1-3.6,5.8-3.6s2.8,0.5,3.6,1.6c0.8,1.1,1.2,2.4,1.2,4.1c0,1.7-0.3,3.1-0.9,4.4s-1.5,1.9-2.7,1.9
			c-1.2,0-2.1-0.4-2.9-1.2c0.5-0.6,0.9-1.5,1.4-2.7c0.4-1.2,0.6-2.3,0.6-3.2c0-1.4-0.6-2.1-1.7-2.1c-1.2,0-2.7,1.2-4.5,3.5
			c-3.9,5.1-7.2,13.6-9.9,25.6l-5,0.4l7.1-29.1l-4.6,0.4l-0.1-1.2C614.7,949,617.8,948.4,620.7,947.7z"/>
		<path id="XMLID_78_" class="st2" d="M635.4,968.6c0-4.9,1.4-9.7,4.3-14.2c1.4-2.2,3.2-3.9,5.5-5.3c2.3-1.4,4.8-2.1,7.7-2.1
			c2.9,0,5.3,1,7.1,3c1.8,2,2.7,4.7,2.7,8.1c0,3.4-0.6,6.7-1.9,9.9c-1.2,3.2-3.2,6-5.9,8.4c-2.7,2.4-5.7,3.5-9.1,3.5
			c-3.4,0-6-1-7.8-3C636.3,974.9,635.4,972.2,635.4,968.6z M652.3,948.6c-2.6,0-4.9,1.3-6.9,3.9c-2,2.6-3.4,5.4-4.2,8.5
			c-0.8,3.1-1.3,5.9-1.3,8.6c0,2.7,0.5,4.8,1.6,6.3s2.6,2.3,4.5,2.3c1.9,0,3.7-0.8,5.3-2.3c1.7-1.5,3-3.4,3.9-5.7c2-4.6,3-8.6,3-12
			s-0.5-5.8-1.6-7.4C655.5,949.4,654.1,948.6,652.3,948.6z"/>
		<path id="XMLID_81_" class="st2" d="M688,974.5c0-0.7,0.1-1.9,0.4-3.5H688c-3.1,5.9-6.6,8.9-10.7,8.9c-4.3,0-6.5-2.4-6.5-7.2
			c0-3.1,1.1-8.9,3.3-17.4l1.3-5l-4.6,0.4l-0.1-1.2c3.3-0.4,6.4-1,9.3-1.8l1,0.7c-4,12.5-6,20.5-6,24s1.3,5.3,4,5.3
			c2.2,0,4.4-1.6,6.5-4.9c2.1-3.2,3.9-7.6,5.3-13.1l2.4-9.4l-4.6,0.4l-0.1-1.2c3.3-0.4,6.4-1,9.3-1.8l1,0.7
			c-1.7,5-3.3,10.3-4.8,16.1c-1.5,5.7-2.2,9.4-2.2,11c0,1.6,0.6,2.4,1.8,2.4c0.9,0,1.9-0.6,3-1.8c1.1-1.2,2-3,2.7-5.2l1.2,0.3
			c-2.1,5.9-4.8,8.8-8.1,8.8C689.5,979.9,688,978.1,688,974.5z"/>
		<path id="XMLID_83_" class="st2" d="M717.8,947.7l1,0.7c-2.3,5.3-4.3,11.4-6,18.2h0.6l1.2-3.2c4-10.9,8.5-16.4,13.7-16.4
			c2.1,0,3.8,1,5.3,3c1.5,2,2.2,4.5,2.2,7.3c0,2.9-0.4,5.6-1.1,8c-0.7,2.5-1.8,4.8-3.2,6.9c-1.4,2.1-3.2,3.9-5.5,5.2
			c-2.3,1.3-4.8,2-7.5,2c-4.2,0-7.4-1.8-9.8-5.5l0.5-1.2c2.3,3.5,5.3,5.3,9.1,5.3c2.2,0,4.1-0.7,5.8-2.2c1.7-1.4,3-3.2,3.9-5.4
			c1.8-4.4,2.7-8.7,2.7-13c0-2.4-0.3-4.4-1-5.7c-0.7-1.4-1.6-2.1-2.7-2.1c-2.3,0-4.8,2.2-7.6,6.6c-2.8,4.4-5.3,11.2-7.6,20.4
			l-4.3,17.8l-5,0.4l10.9-44.6l-4.6,0.4l-0.1-1.2C711.8,949,714.9,948.4,717.8,947.7z"/>
		<path id="XMLID_85_" class="st2" d="M758,968.6c0-4.9,1.4-9.7,4.3-14.2c1.4-2.2,3.2-3.9,5.5-5.3c2.3-1.4,4.8-2.1,7.7-2.1
			c2.9,0,5.3,1,7.1,3c1.8,2,2.7,4.7,2.7,8.1c0,3.4-0.6,6.7-1.9,9.9c-1.2,3.2-3.2,6-5.9,8.4c-2.7,2.4-5.7,3.5-9.1,3.5
			c-3.4,0-6-1-7.8-3C758.9,974.9,758,972.2,758,968.6z M774.9,948.6c-2.6,0-4.9,1.3-6.9,3.9c-2,2.6-3.4,5.4-4.2,8.5
			c-0.8,3.1-1.3,5.9-1.3,8.6c0,2.7,0.5,4.8,1.6,6.3s2.6,2.3,4.5,2.3c1.9,0,3.7-0.8,5.3-2.3c1.7-1.5,3-3.4,3.9-5.7c2-4.6,3-8.6,3-12
			s-0.5-5.8-1.6-7.4C778.2,949.4,776.7,948.6,774.9,948.6z"/>
		<path id="XMLID_88_" class="st2" d="M804.2,945.1l-6.8,31.6c-1.4,6.3-3.1,11-5.1,14.1c-2,3.1-4.5,4.6-7.3,4.6
			c-1.8,0-3.2-0.6-4.2-1.7c-1-1.1-1.5-2.3-1.5-3.7s0.3-2.6,0.8-3.7c0.6-1.1,1.4-1.6,2.6-1.6c1.2,0,2.1,0.3,2.6,0.9
			c-0.6,0.5-1.1,1.2-1.5,2.2c-0.4,1-0.6,1.9-0.6,2.8c0,2.1,0.9,3.1,2.6,3.1c1.9,0,3.4-1.5,4.4-4.5c1-3,2.4-9,4.2-17.9l4.2-21.3
			c1-5.1,2.8-9.5,5.3-13.1c2.5-3.6,5.5-5.5,8.9-5.5c2.4,0,4.2,0.6,5.4,1.7c1.2,1.1,1.8,2.4,1.8,3.9c0,1.5-0.3,2.8-0.9,4
			c-0.6,1.2-1.5,1.8-2.8,1.8c-1.3,0-2.2-0.3-2.8-1c1.4-1.8,2.1-3.6,2.1-5.4c0-2.2-1-3.3-3.1-3.3s-3.8,1-5,3.1
			C806,938.4,805,941.3,804.2,945.1z M792,950.5l0.4-1.4h18.1l-0.4,1.4H792z"/>
		<path id="XMLID_91_" class="st2" d="M850.7,970.8c3-4.5,4.6-8.7,4.6-12.6s-1.2-7.1-3.7-9.6c1.2-1,2.3-1.5,3.3-1.5
			c1.9,0,2.8,2.6,2.8,7.9c0,5.3-0.6,10.1-1.7,14.5c-1.2,4.4-2.7,8.1-4.5,11.2c-1.8,3.1-3.9,5.7-6.3,8c-4.6,4.5-9.2,6.8-13.9,6.8
			c-2.4,0-4.2-0.6-5.4-1.7c-1.2-1.1-1.8-2.4-1.8-3.9c0-1.5,0.3-2.8,0.9-4c0.6-1.2,1.5-1.8,2.7-1.8s2.2,0.3,3,1
			c-1.4,1.8-2.1,3.4-2.1,4.9c0,2.4,1.3,3.6,3.8,3.6c1.7,0,3.6-0.6,5.8-1.8c2.2-1.2,4.4-3,6.7-5.2c2.3-2.2,4.3-5.2,6.2-9
			c1.9-3.7,3.2-7.8,4-12.2c-1.6,4.2-3.7,7.6-6.4,10.4c-2.7,2.7-5.7,4.1-9.2,4.1c-1.8,0-3.2-0.6-4.3-1.8c-1.1-1.2-1.6-2.9-1.6-5
			s0.8-5.8,2.4-11.1c1.6-5.3,2.4-8.7,2.4-10.4s-0.6-2.5-1.9-2.5c-0.9,0-1.9,0.6-2.9,1.8c-1,1.2-1.8,3-2.4,5.2l-1.2-0.3
			c1.8-5.9,4.3-8.8,7.7-8.8c3.1,0,4.7,1.7,4.7,5c0,1.3-0.7,4.7-2.2,10c-1.5,5.3-2.2,8.8-2.2,10.5c0,3.3,1.2,4.9,3.7,4.9
			C844.6,977.5,847.6,975.2,850.7,970.8z"/>
		<path id="XMLID_93_" class="st2" d="M864,968.6c0-4.9,1.4-9.7,4.3-14.2c1.4-2.2,3.2-3.9,5.5-5.3c2.3-1.4,4.8-2.1,7.7-2.1
			c2.9,0,5.3,1,7.1,3c1.8,2,2.7,4.7,2.7,8.1c0,3.4-0.6,6.7-1.9,9.9c-1.2,3.2-3.2,6-5.9,8.4c-2.7,2.4-5.7,3.5-9.1,3.5
			c-3.4,0-6-1-7.8-3C864.9,974.9,864,972.2,864,968.6z M880.9,948.6c-2.6,0-4.9,1.3-6.9,3.9c-2,2.6-3.4,5.4-4.2,8.5
			c-0.8,3.1-1.3,5.9-1.3,8.6c0,2.7,0.5,4.8,1.6,6.3s2.6,2.3,4.5,2.3c1.9,0,3.7-0.8,5.3-2.3c1.7-1.5,3-3.4,3.9-5.7c2-4.6,3-8.6,3-12
			s-0.5-5.8-1.6-7.4C884.1,949.4,882.7,948.6,880.9,948.6z"/>
		<path id="XMLID_96_" class="st2" d="M916.6,974.5c0-0.7,0.1-1.9,0.4-3.5h-0.4c-3.1,5.9-6.6,8.9-10.7,8.9c-4.3,0-6.5-2.4-6.5-7.2
			c0-3.1,1.1-8.9,3.3-17.4l1.3-5l-4.6,0.4l-0.1-1.2c3.3-0.4,6.4-1,9.3-1.8l1,0.7c-4,12.5-6,20.5-6,24s1.3,5.3,4,5.3
			c2.2,0,4.4-1.6,6.5-4.9c2.1-3.2,3.9-7.6,5.3-13.1l2.4-9.4l-4.6,0.4l-0.1-1.2c3.3-0.4,6.4-1,9.3-1.8l1,0.7
			c-1.7,5-3.3,10.3-4.8,16.1c-1.5,5.7-2.2,9.4-2.2,11c0,1.6,0.6,2.4,1.8,2.4c0.9,0,1.9-0.6,3-1.8c1.1-1.2,2-3,2.7-5.2l1.2,0.3
			c-2.1,5.9-4.8,8.8-8.1,8.8C918.1,979.9,916.6,978.1,916.6,974.5z"/>
		<path id="XMLID_98_" class="st2" d="M963.7,953.6c0,2.1-1.2,5.9-3.5,11.4c-2.3,5.5-3.5,9-3.5,10.6c0,1.5,0.6,2.3,1.8,2.3
			c0.9,0,1.9-0.6,3-1.8c1.1-1.2,2-3,2.7-5.2l1.2,0.3c-2.1,5.9-4.8,8.8-8.1,8.8c-3,0-4.5-1.6-4.5-4.9c0-1.4,1.1-4.8,3.3-10.4
			c2.2-5.5,3.3-9.1,3.3-10.7c0-3-1.1-4.5-3.3-4.5c-2.4,0-5,1.9-7.8,5.8c-3.2,4.7-6.1,12.6-8.6,23.8l-5,0.4l7.1-29.1l-4.6,0.4
			l-0.1-1.2c3.3-0.4,6.4-1,9.3-1.8l1,0.7c-2.3,5.3-4.3,11.4-6,18.2h0.6l1.2-3.2c2.6-7.2,5.4-12,8.4-14.1c1.4-1,2.6-1.6,3.6-1.9
			c0.9-0.3,2.1-0.4,3.5-0.4c1.4,0,2.6,0.6,3.6,1.7C963.2,949.9,963.7,951.5,963.7,953.6z"/>
		<path id="XMLID_100_" class="st2" d="M975.6,974.8l11.4,2.6c2.5,0.6,4.3,1.4,5.3,2.3s1.6,2.3,1.6,4.1c0,2.8-1.5,5.4-4.6,7.9
			c-3,2.5-6.5,3.7-10.4,3.7s-7-0.9-9.5-2.7c-2.4-1.8-3.6-3.9-3.6-6.3c0-1.7,0.6-3.3,1.7-4.8s2.8-2.8,5-3.9l1.4,0.4
			c-1.4,0.7-2.5,1.8-3.3,3.3c-0.8,1.5-1.2,3-1.2,4.6c0,2.7,0.9,4.7,2.7,6c1.8,1.3,4.1,2,6.9,2c2.8,0,5.4-0.8,7.8-2.4
			c2.4-1.6,3.6-3.5,3.6-5.8c0-2.3-1.5-3.7-4.4-4.4l-12.4-2.7c-1.4-0.3-2.5-0.9-3.2-1.9c-0.8-1-1.2-2.2-1.2-3.7c0-1.4,0.6-2.8,1.8-4
			c1.2-1.2,2.9-1.8,5-1.8h7.3l-0.2,1h-7.1c-1,0-1.8,0.3-2.4,0.9c-0.6,0.6-0.9,1.4-0.9,2.2C972.7,973.3,973.7,974.4,975.6,974.8z
			 M974.5,960.5c0-3.6,1.3-6.7,3.8-9.4c2.5-2.7,5.6-4.1,9.3-4.1c2.6,0,4.6,0.7,6.2,2.1s2.3,3.3,2.3,5.8c0,4-1.3,7.3-3.9,9.8
			c-2.6,2.5-5.6,3.7-9.1,3.7c-2.6,0-4.7-0.7-6.3-2.1S974.5,963,974.5,960.5z M987.6,948.4c-2.6,0-4.8,1.5-6.5,4.4
			c-1.7,2.9-2.5,5.5-2.5,7.7c0,2.3,0.4,3.9,1.3,4.9c0.8,1,2,1.5,3.3,1.5c2.1,0,4.1-1.2,6-3.6c1.9-2.4,2.9-5.4,2.9-9.1
			c0-1.8-0.4-3.3-1.3-4.3S988.9,948.4,987.6,948.4z M987.7,948l-0.1-1c1.3,0,2.5-0.3,3.4-1c0.9-0.6,1.4-1.5,1.4-2.6
			c0-1.1-0.8-2.1-2.3-3c0.8-1.6,1.7-2.4,2.8-2.4s1.9,0.3,2.4,0.9c0.6,0.6,0.8,1.4,0.8,2.4c0,1.7-0.8,3.2-2.3,4.6
			C992.4,947.3,990.3,948,987.7,948z"/>
		<path id="XMLID_105_" class="st2" d="M1024.3,974.8l11.4,2.6c2.5,0.6,4.3,1.4,5.3,2.3s1.6,2.3,1.6,4.1c0,2.8-1.5,5.4-4.6,7.9
			c-3,2.5-6.5,3.7-10.4,3.7s-7-0.9-9.5-2.7c-2.4-1.8-3.6-3.9-3.6-6.3c0-1.7,0.6-3.3,1.7-4.8s2.8-2.8,5-3.9l1.4,0.4
			c-1.4,0.7-2.5,1.8-3.3,3.3c-0.8,1.5-1.2,3-1.2,4.6c0,2.7,0.9,4.7,2.7,6c1.8,1.3,4.1,2,6.9,2c2.8,0,5.4-0.8,7.8-2.4
			c2.4-1.6,3.6-3.5,3.6-5.8c0-2.3-1.5-3.7-4.4-4.4l-12.4-2.7c-1.4-0.3-2.5-0.9-3.2-1.9c-0.8-1-1.2-2.2-1.2-3.7c0-1.4,0.6-2.8,1.8-4
			c1.2-1.2,2.9-1.8,5-1.8h7.3l-0.2,1h-7.1c-1,0-1.8,0.3-2.4,0.9c-0.6,0.6-0.9,1.4-0.9,2.2C1021.4,973.3,1022.4,974.4,1024.3,974.8z
			 M1023.2,960.5c0-3.6,1.3-6.7,3.8-9.4c2.5-2.7,5.6-4.1,9.3-4.1c2.6,0,4.6,0.7,6.2,2.1s2.3,3.3,2.3,5.8c0,4-1.3,7.3-3.9,9.8
			c-2.6,2.5-5.6,3.7-9.1,3.7c-2.6,0-4.7-0.7-6.3-2.1S1023.2,963,1023.2,960.5z M1036.3,948.4c-2.6,0-4.8,1.5-6.5,4.4
			c-1.7,2.9-2.5,5.5-2.5,7.7c0,2.3,0.4,3.9,1.3,4.9c0.8,1,2,1.5,3.3,1.5c2.1,0,4.1-1.2,6-3.6c1.9-2.4,2.9-5.4,2.9-9.1
			c0-1.8-0.4-3.3-1.3-4.3S1037.6,948.4,1036.3,948.4z M1036.4,948l-0.1-1c1.3,0,2.5-0.3,3.4-1c0.9-0.6,1.4-1.5,1.4-2.6
			c0-1.1-0.8-2.1-2.3-3c0.8-1.6,1.7-2.4,2.8-2.4s1.9,0.3,2.4,0.9c0.6,0.6,0.8,1.4,0.8,2.4c0,1.7-0.8,3.2-2.3,4.6
			C1041,947.3,1039,948,1036.4,948z"/>
		<path id="XMLID_110_" class="st2" d="M1069.4,974.5c0-0.7,0.1-1.9,0.4-3.5h-0.4c-3.1,5.9-6.6,8.9-10.7,8.9c-4.3,0-6.5-2.4-6.5-7.2
			c0-3.1,1.1-8.9,3.3-17.4l1.3-5l-4.6,0.4l-0.1-1.2c3.3-0.4,6.4-1,9.3-1.8l1,0.7c-4,12.5-6,20.5-6,24s1.3,5.3,4,5.3
			c2.2,0,4.4-1.6,6.5-4.9c2.1-3.2,3.9-7.6,5.3-13.1l2.4-9.4l-4.6,0.4l-0.1-1.2c3.3-0.4,6.4-1,9.3-1.8l1,0.7
			c-1.7,5-3.3,10.3-4.8,16.1c-1.5,5.7-2.2,9.4-2.2,11c0,1.6,0.6,2.4,1.8,2.4c0.9,0,1.9-0.6,3-1.8c1.1-1.2,2-3,2.7-5.2l1.2,0.3
			c-2.1,5.9-4.8,8.8-8.1,8.8C1070.9,979.9,1069.4,978.1,1069.4,974.5z"/>
		<path id="XMLID_112_" class="st2" d="M1107.8,970.8c3-4.5,4.6-8.7,4.6-12.6s-1.2-7.1-3.7-9.6c1.2-1,2.3-1.5,3.3-1.5
			c1.9,0,2.8,2.6,2.8,7.9c0,5.3-0.6,10.1-1.7,14.5c-1.2,4.4-2.7,8.1-4.5,11.2c-1.8,3.1-3.9,5.7-6.3,8c-4.6,4.5-9.2,6.8-13.9,6.8
			c-2.4,0-4.2-0.6-5.4-1.7c-1.2-1.1-1.8-2.4-1.8-3.9c0-1.5,0.3-2.8,0.9-4c0.6-1.2,1.5-1.8,2.7-1.8s2.2,0.3,3,1
			c-1.4,1.8-2.1,3.4-2.1,4.9c0,2.4,1.3,3.6,3.8,3.6c1.7,0,3.6-0.6,5.8-1.8c2.2-1.2,4.4-3,6.7-5.2c2.3-2.2,4.3-5.2,6.2-9
			c1.9-3.7,3.2-7.8,4-12.2c-1.6,4.2-3.7,7.6-6.4,10.4c-2.7,2.7-5.7,4.1-9.2,4.1c-1.8,0-3.2-0.6-4.3-1.8c-1.1-1.2-1.6-2.9-1.6-5
			s0.8-5.8,2.4-11.1c1.6-5.3,2.4-8.7,2.4-10.4s-0.6-2.5-1.9-2.5c-0.9,0-1.9,0.6-2.9,1.8c-1,1.2-1.8,3-2.4,5.2l-1.2-0.3
			c1.8-5.9,4.3-8.8,7.7-8.8c3.1,0,4.7,1.7,4.7,5c0,1.3-0.7,4.7-2.2,10c-1.5,5.3-2.2,8.8-2.2,10.5c0,3.3,1.2,4.9,3.7,4.9
			C1101.7,977.5,1104.7,975.2,1107.8,970.8z"/>
		<path id="XMLID_115_" class="st2" d="M1134.9,948.8c-1.8,0-3.4,0.5-4.7,1.6c-1.3,1.1-1.9,2.4-1.9,4c0,1.6,0.7,3.1,2,4.5
			c1.3,1.3,2.8,2.5,4.4,3.3c1.6,0.9,3,2.1,4.4,3.5c1.3,1.4,2,3,2,4.6c0,3.1-1.2,5.4-3.6,7.1s-5.2,2.5-8.6,2.5
			c-3.4,0-6.3-0.8-8.9-2.4c0.8-1.6,1.6-4.5,2.3-8.5l1.2,0.2c-0.3,2-0.5,3.5-0.5,4.6c0,1.1,0.5,2.2,1.6,3.1c1.1,0.9,2.6,1.4,4.7,1.4
			c2,0,3.8-0.6,5.2-1.9s2.1-2.9,2.1-4.9c0-1.3-0.6-2.6-1.9-3.8c-1.3-1.2-2.7-2.2-4.2-3.1c-1.5-0.8-2.9-2-4.2-3.5
			c-1.3-1.5-1.9-3.1-1.9-4.9c0-2.6,1-4.9,3.1-6.7c2.1-1.8,4.8-2.7,8.2-2.7c2.6,0,5.3,0.6,7.8,1.9c-0.2,0.5-0.6,1.7-1.2,3.6
			s-1,3.6-1.3,5.3l-1.2-0.2c0.3-1.5,0.4-3,0.4-4.4c0-1.4-0.5-2.5-1.4-3.3C1138.1,949.2,1136.7,948.8,1134.9,948.8z"/>
		<path id="XMLID_120_" class="st2" d="M1189.3,964.7l1.1-0.1c-3.5,10.1-8.3,15.2-14.5,15.2c-1.8,0-3.2-0.6-4.3-1.8
			c-1.1-1.2-1.6-2.9-1.6-5s0.8-5.8,2.4-11.1c1.6-5.3,2.4-8.7,2.4-10.4s-0.6-2.5-1.9-2.5c-0.9,0-1.9,0.6-2.9,1.8
			c-1,1.2-1.8,3-2.4,5.2l-1.2-0.3c1.8-5.9,4.3-8.8,7.7-8.8c3.1,0,4.7,1.7,4.7,5c0,1.3-0.7,4.7-2.2,10c-1.5,5.3-2.2,8.8-2.2,10.5
			c0,3.3,1.2,4.9,3.5,4.9c2.2,0,4.3-1.3,6.5-3.8C1186.4,971.1,1188,968.1,1189.3,964.7z M1188.1,978c-1.1-1.2-1.7-2.8-1.7-4.7
			c0-1.9,0.7-5,2.2-9.3c1.5-4.3,2.2-7.5,2.2-9.7c0-2.2-0.6-4.1-1.7-5.7c1.2-1,2.3-1.5,3.2-1.5c1,0,1.7,0.6,2.1,1.8
			c0.4,1.2,0.6,2.8,0.6,4.7s-0.7,5.2-2.2,9.9c-1.5,4.6-2.2,7.7-2.2,9.3c0,3.2,1.2,4.8,3.5,4.8c2.9,0,5.8-2.2,8.6-6.7
			c2.8-4.5,4.2-8.6,4.2-12.3c0-3.7-1.1-7.1-3.4-9.9c1.2-1,2.3-1.5,3.2-1.5c1,0,1.7,0.6,2.1,1.8c0.4,1.2,0.6,2.8,0.6,4.9
			c0,2.1-0.4,4.6-1.1,7.6c-0.7,3-1.8,5.9-3.2,8.7c-1.4,2.8-3.2,5.1-5.5,7c-2.3,1.9-4.8,2.8-7.5,2.8
			C1190.7,979.9,1189.2,979.2,1188.1,978z"/>
		<path id="XMLID_123_" class="st2" d="M1219.2,979l-5,0.4l11.3-45.1l-4.6,0.4l-0.1-1.2c3.3-0.4,6.4-1,9.3-1.8l1,0.7
			c-3.9,11.3-7.3,22.7-10.3,34.2h0.6l1.2-3.2c2.6-7.2,5.4-12,8.4-14.1c1.4-1,2.6-1.6,3.6-1.9c0.9-0.3,2.1-0.4,3.5-0.4
			c1.4,0,2.6,0.6,3.6,1.7c1,1.2,1.5,2.8,1.5,4.8c0,2.1-1.2,5.9-3.5,11.4c-2.3,5.5-3.5,9-3.5,10.6c0,1.5,0.6,2.3,1.8,2.3
			c0.9,0,1.9-0.6,3-1.8c1.1-1.2,2-3,2.7-5.2l1.2,0.3c-2.1,5.9-4.8,8.8-8.1,8.8c-3,0-4.5-1.6-4.5-4.9c0-1.4,1.1-4.8,3.3-10.4
			c2.2-5.5,3.3-9.1,3.3-10.7c0-3-1.1-4.5-3.3-4.5c-2.4,0-5,1.9-7.8,5.8C1224.6,959.9,1221.7,967.8,1219.2,979z"/>
		<path id="XMLID_125_" class="st2" d="M1250,968.6c0-4.9,1.4-9.7,4.3-14.2c1.4-2.2,3.2-3.9,5.5-5.3c2.3-1.4,4.8-2.1,7.7-2.1
			c2.9,0,5.3,1,7.1,3c1.8,2,2.7,4.7,2.7,8.1c0,3.4-0.6,6.7-1.9,9.9c-1.2,3.2-3.2,6-5.9,8.4c-2.7,2.4-5.7,3.5-9.1,3.5
			c-3.4,0-6-1-7.8-3C1250.9,974.9,1250,972.2,1250,968.6z M1266.9,948.6c-2.6,0-4.9,1.3-6.9,3.9c-2,2.6-3.4,5.4-4.2,8.5
			c-0.8,3.1-1.3,5.9-1.3,8.6c0,2.7,0.5,4.8,1.6,6.3s2.6,2.3,4.5,2.3c1.9,0,3.7-0.8,5.3-2.3c1.7-1.5,3-3.4,3.9-5.7c2-4.6,3-8.6,3-12
			s-0.5-5.8-1.6-7.4C1270.2,949.4,1268.8,948.6,1266.9,948.6z"/>
		<path id="XMLID_128_" class="st2" d="M295,1074.5c-1.5,5.7-2.2,9.4-2.2,11c0,1.6,0.6,2.4,1.8,2.4c0.9,0,1.9-0.6,3-1.8
			c1.1-1.2,2-3,2.7-5.2l1.2,0.3c-2.1,5.9-4.8,8.8-8.1,8.8c-3,0-4.5-1.8-4.5-5.4c0-0.7,0.1-1.9,0.4-3.5h-0.4c-3,5.9-6.4,8.9-10.4,8.9
			c-2.3,0-4.1-1-5.7-3c-1.5-2-2.3-4.4-2.3-7.3s0.4-5.6,1.2-8.1c0.8-2.5,1.8-4.8,3.2-7c1.4-2.2,3.2-4,5.5-5.3
			c2.3-1.4,4.8-2.1,7.6-2.1c3.6,0,6.4,1.5,8.4,4.5l2.2-3.9l1,0.7C298,1063.4,296.4,1068.7,295,1074.5z M280.2,1087.7
			c2,0,4.1-1.6,6.1-4.7c2.4-3.6,4.5-9.5,6.6-17.6c0.4-1.9,0.8-3.3,1-4.2c-1.7-1.6-3.6-2.4-5.8-2.4c-2.2,0-4.1,0.7-5.8,2.2
			c-1.7,1.5-3,3.4-4,5.6c-2,4.6-3,9-3,13c0,2.7,0.4,4.7,1.3,6C277.5,1087,278.7,1087.7,280.2,1087.7z"/>
		<path id="XMLID_131_" class="st2" d="M318.6,1057.7l1,0.7c-2.3,5.3-4.3,11.4-6,18.2h0.6l1.2-3.2c2.3-6.1,4.5-10.4,6.7-12.8
			c2.2-2.4,4.1-3.6,5.8-3.6c1.6,0,2.8,0.5,3.6,1.6c0.8,1.1,1.2,2.4,1.2,4.1c0,1.7-0.3,3.1-0.9,4.4c-0.6,1.2-1.5,1.9-2.7,1.9
			c-1.2,0-2.1-0.4-2.9-1.2c0.5-0.6,0.9-1.5,1.4-2.7c0.4-1.2,0.6-2.3,0.6-3.2c0-1.4-0.6-2.1-1.7-2.1c-1.2,0-2.7,1.2-4.5,3.5
			c-3.9,5.1-7.2,13.6-9.9,25.6l-5,0.4l7.1-29.1l-4.6,0.4l-0.1-1.2C312.6,1059,315.7,1058.4,318.6,1057.7z"/>
		<path id="XMLID_133_" class="st2" d="M356.3,1058.9c1.3,1.2,1.9,3,1.9,5.3c0,2.3-0.9,4.3-2.7,5.9c-3,2.9-7.5,4.3-13.5,4.3
			c-1.8,0-3.3-0.1-4.6-0.4v-1.4c1.7,0.2,3.1,0.4,4.2,0.4c4,0,7.1-1,9.3-3c2.2-2,3.3-4.2,3.3-6.6c0-1.3-0.3-2.4-1-3.2
			c-0.7-0.9-1.8-1.3-3.5-1.3c-1.6,0-3.2,0.7-4.9,2.2c-1.7,1.5-3,3.3-3.9,5.5c-1.9,4.7-2.9,8.7-2.9,12.1c0,6.3,1.9,9.5,5.8,9.5
			c4.8,0,8.2-2.6,10.4-7.8l1.2,0.3c-1.2,2.9-2.8,5.2-5,6.8c-2.2,1.6-4.6,2.4-7.4,2.4s-5-1-6.9-3c-1.9-2-2.8-4.7-2.8-8.1
			s0.6-6.7,1.9-9.9c1.3-3.2,3.3-6,6-8.3c2.7-2.3,5.9-3.5,9.4-3.5C353.2,1057,355.1,1057.6,356.3,1058.9z"/>
		<path id="XMLID_135_" class="st2" d="M391.9,1057.7l1,0.7c-2.3,5.3-4.3,11.4-6,18.2h0.6l1.2-3.2c4-10.9,8.5-16.4,13.7-16.4
			c2.1,0,3.8,1,5.3,3c1.5,2,2.2,4.5,2.2,7.3c0,2.9-0.4,5.6-1.1,8c-0.7,2.5-1.8,4.8-3.2,6.9c-1.4,2.1-3.2,3.9-5.5,5.2
			c-2.3,1.3-4.8,2-7.5,2c-4.2,0-7.4-1.8-9.8-5.5l0.5-1.2c2.3,3.5,5.3,5.3,9.1,5.3c2.2,0,4.1-0.7,5.8-2.2c1.7-1.4,3-3.2,3.9-5.4
			c1.8-4.4,2.7-8.7,2.7-13c0-2.4-0.3-4.4-1-5.7c-0.7-1.4-1.6-2.1-2.7-2.1c-2.3,0-4.8,2.2-7.6,6.6c-2.8,4.4-5.3,11.2-7.6,20.4
			l-4.3,17.8l-5,0.4l10.9-44.6l-4.6,0.4l-0.1-1.2C386,1059,389.1,1058.4,391.9,1057.7z"/>
		<path id="XMLID_154_" class="st2" d="M438.5,1074.5c-1.5,5.7-2.2,9.4-2.2,11c0,1.6,0.6,2.4,1.8,2.4c0.9,0,1.9-0.6,3-1.8
			c1.1-1.2,2-3,2.7-5.2l1.2,0.3c-2.1,5.9-4.8,8.8-8.1,8.8c-3,0-4.5-1.8-4.5-5.4c0-0.7,0.1-1.9,0.4-3.5h-0.4c-3,5.9-6.4,8.9-10.4,8.9
			c-2.3,0-4.1-1-5.7-3c-1.5-2-2.3-4.4-2.3-7.3s0.4-5.6,1.2-8.1c0.8-2.5,1.8-4.8,3.2-7c1.4-2.2,3.2-4,5.5-5.3s4.8-2.1,7.6-2.1
			c3.6,0,6.4,1.5,8.4,4.5l2.2-3.9l1,0.7C441.6,1063.4,440,1068.7,438.5,1074.5z M423.8,1087.7c2,0,4.1-1.6,6.1-4.7
			c2.4-3.6,4.5-9.5,6.6-17.6c0.4-1.9,0.8-3.3,1-4.2c-1.7-1.6-3.6-2.4-5.8-2.4c-2.2,0-4.1,0.7-5.8,2.2c-1.7,1.5-3,3.4-4,5.6
			c-2,4.6-3,9-3,13c0,2.7,0.4,4.7,1.3,6C421.1,1087,422.3,1087.7,423.8,1087.7z"/>
		<path id="XMLID_157_" class="st2" d="M463.9,1058.8c-1.8,0-3.4,0.5-4.7,1.6c-1.3,1.1-1.9,2.4-1.9,4c0,1.6,0.7,3.1,2,4.5
			c1.3,1.3,2.8,2.5,4.4,3.3c1.6,0.9,3,2.1,4.4,3.5c1.3,1.4,2,3,2,4.6c0,3.1-1.2,5.4-3.6,7.1c-2.4,1.7-5.2,2.5-8.6,2.5
			c-3.4,0-6.3-0.8-8.9-2.4c0.8-1.6,1.6-4.5,2.3-8.5l1.2,0.2c-0.3,2-0.5,3.5-0.5,4.6c0,1.1,0.5,2.2,1.6,3.1c1.1,0.9,2.6,1.4,4.7,1.4
			c2,0,3.8-0.6,5.2-1.9c1.4-1.2,2.1-2.9,2.1-4.9c0-1.3-0.6-2.6-1.9-3.8c-1.3-1.2-2.7-2.2-4.2-3.1c-1.5-0.8-2.9-2-4.2-3.5
			c-1.3-1.5-1.9-3.1-1.9-4.9c0-2.6,1-4.9,3.1-6.7c2.1-1.8,4.8-2.7,8.2-2.7c2.6,0,5.3,0.6,7.8,1.9c-0.2,0.5-0.6,1.7-1.2,3.6
			s-1,3.6-1.3,5.3l-1.2-0.2c0.3-1.5,0.4-3,0.4-4.4c0-1.4-0.5-2.5-1.4-3.3C467.1,1059.2,465.7,1058.8,463.9,1058.8z"/>
		<path id="XMLID_159_" class="st2" d="M491.2,1058.8c-1.8,0-3.4,0.5-4.7,1.6c-1.3,1.1-1.9,2.4-1.9,4c0,1.6,0.7,3.1,2,4.5
			c1.3,1.3,2.8,2.5,4.4,3.3c1.6,0.9,3,2.1,4.4,3.5c1.3,1.4,2,3,2,4.6c0,3.1-1.2,5.4-3.6,7.1c-2.4,1.7-5.2,2.5-8.6,2.5
			c-3.4,0-6.3-0.8-8.9-2.4c0.8-1.6,1.6-4.5,2.3-8.5l1.2,0.2c-0.3,2-0.5,3.5-0.5,4.6c0,1.1,0.5,2.2,1.6,3.1c1.1,0.9,2.6,1.4,4.7,1.4
			c2,0,3.8-0.6,5.2-1.9c1.4-1.2,2.1-2.9,2.1-4.9c0-1.3-0.6-2.6-1.9-3.8c-1.3-1.2-2.7-2.2-4.2-3.1c-1.5-0.8-2.9-2-4.2-3.5
			c-1.3-1.5-1.9-3.1-1.9-4.9c0-2.6,1-4.9,3.1-6.7c2.1-1.8,4.8-2.7,8.2-2.7c2.6,0,5.3,0.6,7.8,1.9c-0.2,0.5-0.6,1.7-1.2,3.6
			s-1,3.6-1.3,5.3l-1.2-0.2c0.3-1.5,0.4-3,0.4-4.4c0-1.4-0.5-2.5-1.4-3.3C494.4,1059.2,493,1058.8,491.2,1058.8z"/>
		<path id="XMLID_161_" class="st2" d="M506.8,1084.5c0-2.5,1.8-10.6,5.3-24.1l-4.6,0.4l-0.1-1.2c3.3-0.4,6.4-1,9.3-1.8l1,0.7
			c-1.7,5-3.3,10.3-4.8,16.1c-1.5,5.7-2.2,9.4-2.2,11c0,1.6,0.6,2.4,1.8,2.4c0.9,0,1.9-0.6,3-1.8c1.1-1.2,2-3,2.7-5.2l1.2,0.3
			c-2.1,5.9-4.8,8.8-8.1,8.8C508.3,1089.9,506.8,1088.1,506.8,1084.5z M515,1049.8c-0.6-0.6-0.9-1.4-0.9-2.3c0-0.9,0.3-1.7,0.9-2.3
			c0.6-0.6,1.4-0.9,2.3-0.9c0.9,0,1.7,0.3,2.3,0.9c0.6,0.6,0.9,1.4,0.9,2.3c0,0.9-0.3,1.7-0.9,2.3c-0.6,0.6-1.4,0.9-2.3,0.9
			C516.4,1050.8,515.6,1050.5,515,1049.8z"/>
		<path id="XMLID_164_" class="st2" d="M524.6,1078.6c0-4.9,1.4-9.7,4.3-14.2c1.4-2.2,3.2-3.9,5.5-5.3c2.3-1.4,4.8-2.1,7.7-2.1
			c2.9,0,5.3,1,7.1,3c1.8,2,2.7,4.7,2.7,8.1c0,3.4-0.6,6.7-1.9,9.9c-1.2,3.2-3.2,6-5.9,8.4c-2.7,2.4-5.7,3.5-9.1,3.5
			c-3.4,0-6-1-7.8-3C525.5,1084.9,524.6,1082.2,524.6,1078.6z M541.5,1058.6c-2.6,0-4.9,1.3-6.9,3.9c-2,2.6-3.4,5.4-4.2,8.5
			c-0.8,3.1-1.3,5.9-1.3,8.6c0,2.7,0.5,4.8,1.6,6.3s2.6,2.3,4.5,2.3c1.9,0,3.7-0.8,5.3-2.3c1.7-1.5,3-3.4,3.9-5.7c2-4.6,3-8.6,3-12
			s-0.5-5.8-1.6-7.4C544.7,1059.4,543.3,1058.6,541.5,1058.6z"/>
		<path id="XMLID_167_" class="st2" d="M587.1,1063.6c0,2.1-1.2,5.9-3.5,11.4c-2.3,5.5-3.5,9-3.5,10.6c0,1.5,0.6,2.3,1.8,2.3
			c0.9,0,1.9-0.6,3-1.8c1.1-1.2,2-3,2.7-5.2l1.2,0.3c-2.1,5.9-4.8,8.8-8.1,8.8c-3,0-4.5-1.6-4.5-4.9c0-1.4,1.1-4.8,3.3-10.4
			c2.2-5.5,3.3-9.1,3.3-10.7c0-3-1.1-4.5-3.3-4.5c-2.4,0-5,1.9-7.8,5.8c-3.2,4.7-6.1,12.6-8.6,23.8l-5,0.4l7.1-29.1l-4.6,0.4
			l-0.1-1.2c3.3-0.4,6.4-1,9.3-1.8l1,0.7c-2.3,5.3-4.3,11.4-6,18.2h0.6l1.2-3.2c2.6-7.2,5.4-12,8.4-14.1c1.4-1,2.6-1.6,3.6-1.9
			c0.9-0.3,2.1-0.4,3.5-0.4c1.4,0,2.6,0.6,3.6,1.7C586.5,1059.9,587.1,1061.5,587.1,1063.6z"/>
		<path id="XMLID_169_" class="st2" d="M618.3,1074.5c-1.5,5.7-2.2,9.4-2.2,11c0,1.6,0.6,2.4,1.8,2.4c0.9,0,1.9-0.6,3-1.8
			c1.1-1.2,2-3,2.7-5.2l1.2,0.3c-2.1,5.9-4.8,8.8-8.1,8.8c-3,0-4.5-1.8-4.5-5.4c0-0.7,0.1-1.9,0.4-3.5h-0.4c-3,5.9-6.4,8.9-10.4,8.9
			c-2.3,0-4.1-1-5.7-3c-1.5-2-2.3-4.4-2.3-7.3s0.4-5.6,1.2-8.1c0.8-2.5,1.8-4.8,3.2-7c1.4-2.2,3.2-4,5.5-5.3
			c2.3-1.4,4.8-2.1,7.6-2.1c3.6,0,6.4,1.5,8.4,4.5l2.2-3.9l1,0.7C621.4,1063.4,619.8,1068.7,618.3,1074.5z M603.5,1087.7
			c2,0,4.1-1.6,6.1-4.7c2.4-3.6,4.5-9.5,6.6-17.6c0.4-1.9,0.8-3.3,1-4.2c-1.7-1.6-3.6-2.4-5.8-2.4c-2.2,0-4.1,0.7-5.8,2.2
			c-1.7,1.5-3,3.4-4,5.6c-2,4.6-3,9-3,13c0,2.7,0.4,4.7,1.3,6C600.9,1087,602.1,1087.7,603.5,1087.7z"/>
		<path id="XMLID_172_" class="st2" d="M631.8,1060.5l0.4-1.4h16l-0.4,1.4H631.8z M643.3,1050.3l1,0.7c-1.1,3.4-2.6,8.6-4.4,15.8
			s-3,11.8-3.3,13.9c-0.4,2.1-0.6,3.7-0.6,4.7c0,1.6,0.6,2.4,1.8,2.4c0.9,0,1.9-0.6,3-1.8c1.1-1.2,2-3,2.7-5.2l1.2,0.3
			c-2.1,5.9-4.8,8.8-8.1,8.8c-3,0-4.5-1.8-4.5-5.4c0-3,1.8-11.3,5.3-24.9l-5.2-0.4c2.6,0,4.8-0.6,6.4-1.9
			C640.2,1055.9,641.8,1053.6,643.3,1050.3z"/>
		<path id="XMLID_175_" class="st2" d="M672.8,1058.9c1.3,1.2,1.9,3,1.9,5.3c0,2.3-0.9,4.3-2.7,5.9c-3,2.9-7.5,4.3-13.5,4.3
			c-1.8,0-3.3-0.1-4.6-0.4v-1.4c1.7,0.2,3.1,0.4,4.2,0.4c4,0,7.1-1,9.3-3c2.2-2,3.3-4.2,3.3-6.6c0-1.3-0.3-2.4-1-3.2
			c-0.7-0.9-1.8-1.3-3.5-1.3c-1.6,0-3.2,0.7-4.9,2.2c-1.7,1.5-3,3.3-3.9,5.5c-1.9,4.7-2.9,8.7-2.9,12.1c0,6.3,1.9,9.5,5.8,9.5
			c4.8,0,8.2-2.6,10.4-7.8l1.2,0.3c-1.2,2.9-2.8,5.2-5,6.8c-2.2,1.6-4.6,2.4-7.4,2.4c-2.7,0-5-1-6.9-3c-1.9-2-2.8-4.7-2.8-8.1
			s0.6-6.7,1.9-9.9c1.3-3.2,3.3-6,6-8.3s5.9-3.5,9.4-3.5C669.7,1057,671.6,1057.6,672.8,1058.9z"/>
		<path id="XMLID_177_" class="st2" d="M698.5,1084.5c0-2.5,1.8-10.6,5.3-24.1l-4.6,0.4l-0.1-1.2c3.3-0.4,6.4-1,9.3-1.8l1,0.7
			c-1.7,5-3.3,10.3-4.8,16.1c-1.5,5.7-2.2,9.4-2.2,11c0,1.6,0.6,2.4,1.8,2.4c0.9,0,1.9-0.6,3-1.8c1.1-1.2,2-3,2.7-5.2l1.2,0.3
			c-2.1,5.9-4.8,8.8-8.1,8.8C700,1089.9,698.5,1088.1,698.5,1084.5z M706.6,1049.8c-0.6-0.6-0.9-1.4-0.9-2.3c0-0.9,0.3-1.7,0.9-2.3
			c0.6-0.6,1.4-0.9,2.3-0.9c0.9,0,1.7,0.3,2.3,0.9c0.6,0.6,0.9,1.4,0.9,2.3c0,0.9-0.3,1.7-0.9,2.3c-0.6,0.6-1.4,0.9-2.3,0.9
			C708,1050.8,707.3,1050.5,706.6,1049.8z"/>
		<path id="XMLID_180_" class="st2" d="M745.6,1063.6c0,2.1-1.2,5.9-3.5,11.4c-2.3,5.5-3.5,9-3.5,10.6c0,1.5,0.6,2.3,1.8,2.3
			c0.9,0,1.9-0.6,3-1.8c1.1-1.2,2-3,2.7-5.2l1.2,0.3c-2.1,5.9-4.8,8.8-8.1,8.8c-3,0-4.5-1.6-4.5-4.9c0-1.4,1.1-4.8,3.3-10.4
			c2.2-5.5,3.3-9.1,3.3-10.7c0-3-1.1-4.5-3.3-4.5c-2.4,0-5,1.9-7.8,5.8c-3.2,4.7-6.1,12.6-8.6,23.8l-5,0.4l7.1-29.1l-4.6,0.4
			l-0.1-1.2c3.3-0.4,6.4-1,9.3-1.8l1,0.7c-2.3,5.3-4.3,11.4-6,18.2h0.6l1.2-3.2c2.6-7.2,5.4-12,8.4-14.1c1.4-1,2.6-1.6,3.6-1.9
			c0.9-0.3,2.1-0.4,3.5-0.4c1.4,0,2.6,0.6,3.6,1.7C745.1,1059.9,745.6,1061.5,745.6,1063.6z"/>
		<path id="XMLID_182_" class="st2" d="M793.5,1058.9c1.3,1.2,1.9,3,1.9,5.3c0,2.3-0.9,4.3-2.7,5.9c-3,2.9-7.5,4.3-13.5,4.3
			c-1.8,0-3.3-0.1-4.6-0.4v-1.4c1.7,0.2,3.1,0.4,4.2,0.4c4,0,7.1-1,9.3-3c2.2-2,3.3-4.2,3.3-6.6c0-1.3-0.3-2.4-1-3.2
			c-0.7-0.9-1.8-1.3-3.5-1.3c-1.6,0-3.2,0.7-4.9,2.2c-1.7,1.5-3,3.3-3.9,5.5c-1.9,4.7-2.9,8.7-2.9,12.1c0,6.3,1.9,9.5,5.8,9.5
			c4.8,0,8.2-2.6,10.4-7.8l1.2,0.3c-1.2,2.9-2.8,5.2-5,6.8c-2.2,1.6-4.6,2.4-7.4,2.4c-2.7,0-5-1-6.9-3c-1.9-2-2.8-4.7-2.8-8.1
			s0.6-6.7,1.9-9.9c1.3-3.2,3.3-6,6-8.3s5.9-3.5,9.4-3.5C790.3,1057,792.2,1057.6,793.5,1058.9z"/>
		<path id="XMLID_184_" class="st2" d="M809.2,1078l2.7-4.6l1.8-0.1l-3.5,6c-4,7.1-7.5,10.6-10.5,10.6c-1.4,0-2.2-1.3-2.2-3.9
			C802.5,1085.5,806.4,1082.9,809.2,1078z M807.9,1057c1.9,0,3.5,1.1,4.7,3.2c1.2,2.1,2,4.7,2.5,7.7c0.5,3,0.9,6,1.2,9.1
			c0.8,7.2,2.2,10.9,4,10.9c0.9,0,1.9-0.6,3-1.8c1.1-1.2,2-3,2.7-5.2l1.2,0.3c-2.1,5.9-4.8,8.8-8.1,8.8c-1.9,0-3.5-1.1-4.7-3.2
			c-1.2-2.1-2-4.7-2.5-7.7c-0.5-3-0.9-6-1.2-9.1c-0.8-7.2-2.2-10.9-4-10.9c-0.9,0-1.9,0.6-3,1.8c-1.1,1.2-2,3-2.7,5.2l-1.2-0.3
			C801.9,1060,804.6,1057,807.9,1057z M816.9,1068.9l-2.7,4.6l-1.8,0.1l3.5-6c4-7.1,7.5-10.6,10.5-10.6c1.4,0,2.2,1.3,2.2,3.9
			C823.7,1061.3,819.8,1064,816.9,1068.9z"/>
		<path id="XMLID_188_" class="st2" d="M844.3,1057.7l1,0.7c-2.3,5.3-4.3,11.4-6,18.2h0.6l1.2-3.2c4-10.9,8.5-16.4,13.7-16.4
			c2.1,0,3.8,1,5.3,3c1.5,2,2.2,4.5,2.2,7.3c0,2.9-0.4,5.6-1.1,8c-0.7,2.5-1.8,4.8-3.2,6.9c-1.4,2.1-3.2,3.9-5.5,5.2
			c-2.3,1.3-4.8,2-7.5,2c-4.2,0-7.4-1.8-9.8-5.5l0.5-1.2c2.3,3.5,5.3,5.3,9.1,5.3c2.2,0,4.1-0.7,5.8-2.2c1.7-1.4,3-3.2,3.9-5.4
			c1.8-4.4,2.7-8.7,2.7-13c0-2.4-0.3-4.4-1-5.7c-0.7-1.4-1.6-2.1-2.7-2.1c-2.3,0-4.8,2.2-7.6,6.6c-2.8,4.4-5.3,11.2-7.6,20.4
			l-4.3,17.8l-5,0.4l10.9-44.6l-4.6,0.4l-0.1-1.2C838.3,1059,841.4,1058.4,844.3,1057.7z"/>
		<path id="XMLID_190_" class="st2" d="M871.8,1085.5c0,1.6,0.6,2.4,1.8,2.4c0.9,0,1.9-0.6,3-1.8c1.1-1.2,2-3,2.7-5.2l1.2,0.3
			c-2.1,5.9-4.8,8.8-8.1,8.8c-3,0-4.5-1.9-4.5-5.7c0-3.8,3.1-17.1,9.4-39.9l-4.6,0.4l-0.1-1.2c3.3-0.4,6.4-1,9.3-1.8l1,0.7
			c-2,5.9-4.4,13.9-7.1,24C873.2,1076.5,871.8,1082.9,871.8,1085.5z"/>
		<path id="XMLID_192_" class="st2" d="M885.6,1078.6c0-4.9,1.4-9.7,4.3-14.2c1.4-2.2,3.2-3.9,5.5-5.3c2.3-1.4,4.8-2.1,7.7-2.1
			c2.9,0,5.3,1,7.1,3c1.8,2,2.7,4.7,2.7,8.1c0,3.4-0.6,6.7-1.9,9.9c-1.2,3.2-3.2,6-5.9,8.4c-2.7,2.4-5.7,3.5-9.1,3.5
			c-3.4,0-6-1-7.8-3C886.5,1084.9,885.6,1082.2,885.6,1078.6z M902.5,1058.6c-2.6,0-4.9,1.3-6.9,3.9c-2,2.6-3.4,5.4-4.2,8.5
			c-0.8,3.1-1.3,5.9-1.3,8.6c0,2.7,0.5,4.8,1.6,6.3s2.6,2.3,4.5,2.3c1.9,0,3.7-0.8,5.3-2.3c1.7-1.5,3-3.4,3.9-5.7c2-4.6,3-8.6,3-12
			s-0.5-5.8-1.6-7.4C905.8,1059.4,904.4,1058.6,902.5,1058.6z"/>
		<path id="XMLID_195_" class="st2" d="M930.8,1057.7l1,0.7c-2.3,5.3-4.3,11.4-6,18.2h0.6l1.2-3.2c2.3-6.1,4.5-10.4,6.7-12.8
			c2.2-2.4,4.1-3.6,5.8-3.6s2.8,0.5,3.6,1.6c0.8,1.1,1.2,2.4,1.2,4.1c0,1.7-0.3,3.1-0.9,4.4s-1.5,1.9-2.7,1.9
			c-1.2,0-2.1-0.4-2.9-1.2c0.5-0.6,0.9-1.5,1.4-2.7c0.4-1.2,0.6-2.3,0.6-3.2c0-1.4-0.6-2.1-1.7-2.1c-1.2,0-2.7,1.2-4.5,3.5
			c-3.9,5.1-7.2,13.6-9.9,25.6l-5,0.4l7.1-29.1l-4.6,0.4l-0.1-1.2C924.8,1059,927.9,1058.4,930.8,1057.7z"/>
		<path id="XMLID_197_" class="st2" d="M947.6,1084.5c0-2.5,1.8-10.6,5.3-24.1l-4.6,0.4l-0.1-1.2c3.3-0.4,6.4-1,9.3-1.8l1,0.7
			c-1.7,5-3.3,10.3-4.8,16.1c-1.5,5.7-2.2,9.4-2.2,11c0,1.6,0.6,2.4,1.8,2.4c0.9,0,1.9-0.6,3-1.8c1.1-1.2,2-3,2.7-5.2l1.2,0.3
			c-2.1,5.9-4.8,8.8-8.1,8.8C949.1,1089.9,947.6,1088.1,947.6,1084.5z M955.8,1049.8c-0.6-0.6-0.9-1.4-0.9-2.3
			c0-0.9,0.3-1.7,0.9-2.3c0.6-0.6,1.4-0.9,2.3-0.9c0.9,0,1.7,0.3,2.3,0.9c0.6,0.6,0.9,1.4,0.9,2.3c0,0.9-0.3,1.7-0.9,2.3
			c-0.6,0.6-1.4,0.9-2.3,0.9C957.1,1050.8,956.4,1050.5,955.8,1049.8z"/>
		<path id="XMLID_200_" class="st2" d="M994.7,1063.6c0,2.1-1.2,5.9-3.5,11.4c-2.3,5.5-3.5,9-3.5,10.6c0,1.5,0.6,2.3,1.8,2.3
			c0.9,0,1.9-0.6,3-1.8c1.1-1.2,2-3,2.7-5.2l1.2,0.3c-2.1,5.9-4.8,8.8-8.1,8.8c-3,0-4.5-1.6-4.5-4.9c0-1.4,1.1-4.8,3.3-10.4
			c2.2-5.5,3.3-9.1,3.3-10.7c0-3-1.1-4.5-3.3-4.5c-2.4,0-5,1.9-7.8,5.8c-3.2,4.7-6.1,12.6-8.6,23.8l-5,0.4l7.1-29.1l-4.6,0.4
			l-0.1-1.2c3.3-0.4,6.4-1,9.3-1.8l1,0.7c-2.3,5.3-4.3,11.4-6,18.2h0.6l1.2-3.2c2.6-7.2,5.4-12,8.4-14.1c1.4-1,2.6-1.6,3.6-1.9
			c0.9-0.3,2.1-0.4,3.5-0.4c1.4,0,2.6,0.6,3.6,1.7C994.2,1059.9,994.7,1061.5,994.7,1063.6z"/>
		<path id="XMLID_202_" class="st2" d="M1006.7,1084.8l11.4,2.6c2.5,0.6,4.3,1.4,5.3,2.3s1.6,2.3,1.6,4.1c0,2.8-1.5,5.4-4.6,7.9
			c-3,2.5-6.5,3.7-10.4,3.7s-7-0.9-9.5-2.7c-2.4-1.8-3.6-3.9-3.6-6.3c0-1.7,0.6-3.3,1.7-4.8s2.8-2.8,5-3.9l1.4,0.4
			c-1.4,0.7-2.5,1.8-3.3,3.3c-0.8,1.5-1.2,3-1.2,4.6c0,2.7,0.9,4.7,2.7,6c1.8,1.3,4.1,2,6.9,2c2.8,0,5.4-0.8,7.8-2.4
			c2.4-1.6,3.6-3.5,3.6-5.8c0-2.3-1.5-3.7-4.4-4.4l-12.4-2.7c-1.4-0.3-2.5-0.9-3.2-1.9c-0.8-1-1.2-2.2-1.2-3.7c0-1.4,0.6-2.8,1.8-4
			c1.2-1.2,2.9-1.8,5-1.8h7.3l-0.2,1h-7.1c-1,0-1.8,0.3-2.4,0.9c-0.6,0.6-0.9,1.4-0.9,2.2
			C1003.8,1083.3,1004.7,1084.4,1006.7,1084.8z M1005.6,1070.5c0-3.6,1.3-6.7,3.8-9.4c2.5-2.7,5.6-4.1,9.3-4.1
			c2.6,0,4.6,0.7,6.2,2.1s2.3,3.3,2.3,5.8c0,4-1.3,7.3-3.9,9.8c-2.6,2.5-5.6,3.7-9.1,3.7c-2.6,0-4.7-0.7-6.3-2.1
			S1005.6,1073,1005.6,1070.5z M1018.6,1058.4c-2.6,0-4.8,1.5-6.5,4.4c-1.7,2.9-2.5,5.5-2.5,7.7c0,2.3,0.4,3.9,1.3,4.9
			c0.8,1,2,1.5,3.3,1.5c2.1,0,4.1-1.2,6-3.6c1.9-2.4,2.9-5.4,2.9-9.1c0-1.8-0.4-3.3-1.3-4.3S1020,1058.4,1018.6,1058.4z
			 M1018.8,1058l-0.1-1c1.3,0,2.5-0.3,3.4-1c0.9-0.6,1.4-1.5,1.4-2.6c0-1.1-0.8-2.1-2.3-3c0.8-1.6,1.7-2.4,2.8-2.4s1.9,0.3,2.4,0.9
			c0.6,0.6,0.8,1.4,0.8,2.4c0,1.7-0.8,3.2-2.3,4.6C1023.4,1057.3,1021.3,1058,1018.8,1058z"/>
		<path id="XMLID_207_" class="st2" d="M1079.6,1063.6c0,2.1-1.2,5.9-3.5,11.4c-2.3,5.5-3.5,9-3.5,10.6c0,1.5,0.6,2.3,1.8,2.3
			c0.9,0,1.9-0.6,3-1.8c1.1-1.2,2-3,2.7-5.2l1.2,0.3c-2.1,5.9-4.8,8.8-8.1,8.8c-3,0-4.5-1.6-4.5-4.9c0-1.4,1.1-4.8,3.3-10.4
			c2.2-5.5,3.3-9.1,3.3-10.7c0-3-1.1-4.5-3.3-4.5c-2.4,0-5,1.9-7.8,5.8c-3.2,4.7-6.1,12.6-8.6,23.8l-5,0.4l7.1-29.1l-4.6,0.4
			l-0.1-1.2c3.3-0.4,6.4-1,9.3-1.8l1,0.7c-2.3,5.3-4.3,11.4-6,18.2h0.6l1.2-3.2c2.6-7.2,5.4-12,8.4-14.1c1.4-1,2.6-1.6,3.6-1.9
			c0.9-0.3,2.1-0.4,3.5-0.4c1.4,0,2.6,0.6,3.6,1.7C1079.1,1059.9,1079.6,1061.5,1079.6,1063.6z"/>
		<path id="XMLID_209_" class="st2" d="M1109.5,1058.9c1.3,1.2,1.9,3,1.9,5.3c0,2.3-0.9,4.3-2.7,5.9c-3,2.9-7.5,4.3-13.5,4.3
			c-1.8,0-3.3-0.1-4.6-0.4v-1.4c1.7,0.2,3.1,0.4,4.2,0.4c4,0,7.1-1,9.3-3c2.2-2,3.3-4.2,3.3-6.6c0-1.3-0.3-2.4-1-3.2
			c-0.7-0.9-1.8-1.3-3.5-1.3c-1.6,0-3.2,0.7-4.9,2.2c-1.7,1.5-3,3.3-3.9,5.5c-1.9,4.7-2.9,8.7-2.9,12.1c0,6.3,1.9,9.5,5.8,9.5
			c4.8,0,8.2-2.6,10.4-7.8l1.2,0.3c-1.2,2.9-2.8,5.2-5,6.8c-2.2,1.6-4.6,2.4-7.4,2.4c-2.7,0-5-1-6.9-3c-1.9-2-2.8-4.7-2.8-8.1
			s0.6-6.7,1.9-9.9c1.3-3.2,3.3-6,6-8.3s5.9-3.5,9.4-3.5C1106.3,1057,1108.2,1057.6,1109.5,1058.9z"/>
		<path id="XMLID_211_" class="st2" d="M1137.9,1074.7l1.1-0.1c-3.5,10.1-8.3,15.2-14.5,15.2c-1.8,0-3.2-0.6-4.3-1.8
			c-1.1-1.2-1.6-2.9-1.6-5s0.8-5.8,2.4-11.1c1.6-5.3,2.4-8.7,2.4-10.4s-0.6-2.5-1.9-2.5c-0.9,0-1.9,0.6-2.9,1.8
			c-1,1.2-1.8,3-2.4,5.2l-1.2-0.3c1.8-5.9,4.3-8.8,7.7-8.8c3.1,0,4.7,1.7,4.7,5c0,1.3-0.7,4.7-2.2,10c-1.5,5.3-2.2,8.8-2.2,10.5
			c0,3.3,1.2,4.9,3.5,4.9c2.2,0,4.3-1.3,6.5-3.8C1135,1081.1,1136.7,1078.1,1137.9,1074.7z M1136.8,1088c-1.1-1.2-1.7-2.8-1.7-4.7
			c0-1.9,0.7-5,2.2-9.3c1.5-4.3,2.2-7.5,2.2-9.7c0-2.2-0.6-4.1-1.7-5.7c1.2-1,2.3-1.5,3.2-1.5c1,0,1.7,0.6,2.1,1.8
			c0.4,1.2,0.6,2.8,0.6,4.7s-0.7,5.2-2.2,9.9c-1.5,4.6-2.2,7.7-2.2,9.3c0,3.2,1.2,4.8,3.5,4.8c2.9,0,5.8-2.2,8.6-6.7
			c2.8-4.5,4.2-8.6,4.2-12.3c0-3.7-1.1-7.1-3.4-9.9c1.2-1,2.3-1.5,3.2-1.5c1,0,1.7,0.6,2.1,1.8c0.4,1.2,0.6,2.8,0.6,4.9
			c0,2.1-0.4,4.6-1.1,7.6c-0.7,3-1.8,5.9-3.2,8.7c-1.4,2.8-3.2,5.1-5.5,7c-2.3,1.9-4.8,2.8-7.5,2.8
			C1139.3,1089.9,1137.9,1089.2,1136.8,1088z"/>
		<path id="XMLID_214_" class="st2" d="M1183.2,1084.5c0-2.5,1.8-10.6,5.3-24.1l-4.6,0.4l-0.1-1.2c3.3-0.4,6.4-1,9.3-1.8l1,0.7
			c-1.7,5-3.3,10.3-4.8,16.1c-1.5,5.7-2.2,9.4-2.2,11c0,1.6,0.6,2.4,1.8,2.4c0.9,0,1.9-0.6,3-1.8c1.1-1.2,2-3,2.7-5.2l1.2,0.3
			c-2.1,5.9-4.8,8.8-8.1,8.8C1184.7,1089.9,1183.2,1088.1,1183.2,1084.5z M1191.3,1049.8c-0.6-0.6-0.9-1.4-0.9-2.3
			c0-0.9,0.3-1.7,0.9-2.3c0.6-0.6,1.4-0.9,2.3-0.9c0.9,0,1.7,0.3,2.3,0.9c0.6,0.6,0.9,1.4,0.9,2.3c0,0.9-0.3,1.7-0.9,2.3
			c-0.6,0.6-1.4,0.9-2.3,0.9C1192.7,1050.8,1192,1050.5,1191.3,1049.8z"/>
		<path id="XMLID_217_" class="st2" d="M1219.9,1081h-0.7c-3,5.9-6.4,8.9-10.4,8.9c-2.3,0-4.1-1-5.7-3c-1.5-2-2.3-4.4-2.3-7.3
			s0.4-5.6,1.2-8.1c0.8-2.5,1.8-4.8,3.2-7c1.4-2.2,3.2-4,5.5-5.3c2.3-1.4,4.7-2.1,7.1-2.1c4.6,0,7.9,2,9.8,6l-1,1.3
			c-2.3-3.7-5.1-5.6-8.4-5.6c-2.1,0-3.9,0.7-5.7,2.2c-1.7,1.5-3,3.4-4,5.6c-2,4.6-3,9-3,13c0,2.7,0.4,4.7,1.3,6c0.9,1.3,2.1,2,3.6,2
			c2.1,0,4.2-1.7,6.3-5.2s4.1-8.5,5.8-14.9L1219.9,1081z M1223.1,1085.5c0,1.6,0.6,2.4,1.8,2.4c0.9,0,1.9-0.6,3-1.8
			c1.1-1.2,2-3,2.7-5.2l1.2,0.3c-2.1,5.9-4.8,8.8-8.1,8.8c-3,0-4.5-1.9-4.5-5.7c0-3.8,3.1-17.1,9.4-39.9l-4.6,0.4l-0.1-1.2
			c3.3-0.4,6.4-1,9.3-1.8l1,0.7c-2,5.9-4.4,13.9-7.1,24C1224.4,1076.5,1223.1,1082.9,1223.1,1085.5z"/>
		<path id="XMLID_220_" class="st2" d="M1260,1058.9c1.3,1.2,1.9,3,1.9,5.3c0,2.3-0.9,4.3-2.7,5.9c-3,2.9-7.5,4.3-13.5,4.3
			c-1.8,0-3.3-0.1-4.6-0.4v-1.4c1.7,0.2,3.1,0.4,4.2,0.4c4,0,7.1-1,9.3-3c2.2-2,3.3-4.2,3.3-6.6c0-1.3-0.3-2.4-1-3.2
			c-0.7-0.9-1.8-1.3-3.5-1.3c-1.6,0-3.2,0.7-4.9,2.2c-1.7,1.5-3,3.3-3.9,5.5c-1.9,4.7-2.9,8.7-2.9,12.1c0,6.3,1.9,9.5,5.8,9.5
			c4.8,0,8.2-2.6,10.4-7.8l1.2,0.3c-1.2,2.9-2.8,5.2-5,6.8c-2.2,1.6-4.6,2.4-7.4,2.4c-2.7,0-5-1-6.9-3c-1.9-2-2.8-4.7-2.8-8.1
			s0.6-6.7,1.9-9.9c1.3-3.2,3.3-6,6-8.3s5.9-3.5,9.4-3.5C1256.8,1057,1258.7,1057.6,1260,1058.9z"/>
		<path id="XMLID_222_" class="st2" d="M1289.9,1074.5c-1.5,5.7-2.2,9.4-2.2,11c0,1.6,0.6,2.4,1.8,2.4c0.9,0,1.9-0.6,3-1.8
			c1.1-1.2,2-3,2.7-5.2l1.2,0.3c-2.1,5.9-4.8,8.8-8.1,8.8c-3,0-4.5-1.8-4.5-5.4c0-0.7,0.1-1.9,0.4-3.5h-0.4c-3,5.9-6.4,8.9-10.4,8.9
			c-2.3,0-4.1-1-5.7-3c-1.5-2-2.3-4.4-2.3-7.3s0.4-5.6,1.2-8.1c0.8-2.5,1.8-4.8,3.2-7c1.4-2.2,3.2-4,5.5-5.3
			c2.3-1.4,4.8-2.1,7.6-2.1c3.6,0,6.4,1.5,8.4,4.5l2.2-3.9l1,0.7C1293,1063.4,1291.4,1068.7,1289.9,1074.5z M1275.1,1087.7
			c2,0,4.1-1.6,6.1-4.7c2.4-3.6,4.5-9.5,6.6-17.6c0.4-1.9,0.8-3.3,1-4.2c-1.7-1.6-3.6-2.4-5.8-2.4c-2.2,0-4.1,0.7-5.8,2.2
			c-1.7,1.5-3,3.4-4,5.6c-2,4.6-3,9-3,13c0,2.7,0.4,4.7,1.3,6C1272.5,1087,1273.7,1087.7,1275.1,1087.7z"/>
		<path id="XMLID_225_" class="st2" d="M1315.3,1058.8c-1.8,0-3.4,0.5-4.7,1.6c-1.3,1.1-1.9,2.4-1.9,4c0,1.6,0.7,3.1,2,4.5
			c1.3,1.3,2.8,2.5,4.4,3.3c1.6,0.9,3,2.1,4.4,3.5c1.3,1.4,2,3,2,4.6c0,3.1-1.2,5.4-3.6,7.1s-5.2,2.5-8.6,2.5
			c-3.4,0-6.3-0.8-8.9-2.4c0.8-1.6,1.6-4.5,2.3-8.5l1.2,0.2c-0.3,2-0.5,3.5-0.5,4.6c0,1.1,0.5,2.2,1.6,3.1c1.1,0.9,2.6,1.4,4.7,1.4
			c2,0,3.8-0.6,5.2-1.9s2.1-2.9,2.1-4.9c0-1.3-0.6-2.6-1.9-3.8c-1.3-1.2-2.7-2.2-4.2-3.1c-1.5-0.8-2.9-2-4.2-3.5
			c-1.3-1.5-1.9-3.1-1.9-4.9c0-2.6,1-4.9,3.1-6.7c2.1-1.8,4.8-2.7,8.2-2.7c2.6,0,5.3,0.6,7.8,1.9c-0.2,0.5-0.6,1.7-1.2,3.6
			s-1,3.6-1.3,5.3l-1.2-0.2c0.3-1.5,0.4-3,0.4-4.4c0-1.4-0.5-2.5-1.4-3.3C1318.5,1059.2,1317.1,1058.8,1315.3,1058.8z"/>
		<path id="XMLID_227_" class="st2" d="M1330.1,1088.7c-0.7-0.7-1.1-1.6-1.1-2.7c0-1.1,0.4-2,1.1-2.7c0.7-0.7,1.6-1.1,2.7-1.1
			c1.1,0,2,0.4,2.7,1.1c0.7,0.7,1.1,1.6,1.1,2.7c0,1.1-0.4,2-1.1,2.7c-0.7,0.7-1.6,1.1-2.7,1.1
			C1331.8,1089.9,1330.9,1089.5,1330.1,1088.7z"/>
		<path id="XMLID_229_" class="st2" d="M404.9,1153.6h9.3l-0.2,1.3h-2.5c-0.7,0-1.2,0.3-1.5,1l-21.8,43.1h-2.3l-3.6-35.9l-18.6,35.9
			h-2.3l-3.5-43.1c-0.1-0.7-0.5-1-1.1-1h-2.5l0.2-1.3h12l-0.2,1.3h-3.4l3,35.6l16.3-31.2l-0.4-3.4c-0.1-0.7-0.5-1-1.1-1H378l0.2-1.3
			h12l-0.2,1.3h-3.5l3.6,35.4l17.9-35.4h-3.4L404.9,1153.6z"/>
		<path id="XMLID_231_" class="st2" d="M430.5,1168.9c1.3,1.2,1.9,3,1.9,5.3c0,2.3-0.9,4.3-2.7,5.9c-3,2.9-7.5,4.3-13.5,4.3
			c-1.8,0-3.3-0.1-4.6-0.4v-1.4c1.7,0.2,3.1,0.4,4.2,0.4c4,0,7.1-1,9.3-3c2.2-2,3.3-4.2,3.3-6.6c0-1.3-0.3-2.4-1-3.2
			c-0.7-0.9-1.8-1.3-3.5-1.3c-1.6,0-3.2,0.7-4.9,2.2c-1.7,1.5-3,3.3-3.9,5.5c-1.9,4.7-2.9,8.7-2.9,12.1c0,6.3,1.9,9.5,5.8,9.5
			c4.8,0,8.2-2.6,10.4-7.8l1.2,0.3c-1.2,2.9-2.8,5.2-5,6.8c-2.2,1.6-4.6,2.4-7.4,2.4c-2.7,0-5-1-6.9-3c-1.9-2-2.8-4.7-2.8-8.1
			s0.6-6.7,1.9-9.9c1.3-3.2,3.3-6,6-8.3c2.7-2.3,5.9-3.5,9.4-3.5C427.3,1167,429.2,1167.6,430.5,1168.9z"/>
		<path id="XMLID_233_" class="st2" d="M473,1191h-0.7c-3,5.9-6.4,8.9-10.4,8.9c-2.3,0-4.1-1-5.7-3c-1.5-2-2.3-4.4-2.3-7.3
			s0.4-5.6,1.2-8.1c0.8-2.5,1.8-4.8,3.2-7c1.4-2.2,3.2-4,5.5-5.3s4.7-2.1,7.1-2.1c4.6,0,7.9,2,9.8,6l-1,1.3
			c-2.3-3.7-5.1-5.6-8.4-5.6c-2.1,0-3.9,0.7-5.7,2.2c-1.7,1.5-3,3.4-4,5.6c-2,4.6-3,9-3,13c0,2.7,0.4,4.7,1.3,6c0.9,1.3,2.1,2,3.6,2
			c2.1,0,4.2-1.7,6.3-5.2s4.1-8.5,5.8-14.9L473,1191z M476.1,1195.5c0,1.6,0.6,2.4,1.8,2.4c0.9,0,1.9-0.6,3-1.8c1.1-1.2,2-3,2.7-5.2
			l1.2,0.3c-2.1,5.9-4.8,8.8-8.1,8.8c-3,0-4.5-1.9-4.5-5.7c0-3.8,3.1-17.1,9.4-39.9l-4.6,0.4l-0.1-1.2c3.3-0.4,6.4-1,9.3-1.8l1,0.7
			c-2,5.9-4.4,13.9-7.1,24C477.5,1186.5,476.1,1192.9,476.1,1195.5z"/>
		<path id="XMLID_236_" class="st2" d="M490,1188.6c0-4.9,1.4-9.7,4.3-14.2c1.4-2.2,3.2-3.9,5.5-5.3c2.3-1.4,4.8-2.1,7.7-2.1
			c2.9,0,5.3,1,7.1,3c1.8,2,2.7,4.7,2.7,8.1c0,3.4-0.6,6.7-1.9,9.9c-1.2,3.2-3.2,6-5.9,8.4c-2.7,2.4-5.7,3.5-9.1,3.5
			c-3.4,0-6-1-7.8-3C490.9,1194.9,490,1192.2,490,1188.6z M506.9,1168.6c-2.6,0-4.9,1.3-6.9,3.9c-2,2.6-3.4,5.4-4.2,8.5
			c-0.8,3.1-1.3,5.9-1.3,8.6c0,2.7,0.5,4.8,1.6,6.3s2.6,2.3,4.5,2.3c1.9,0,3.7-0.8,5.3-2.3c1.7-1.5,3-3.4,3.9-5.7c2-4.6,3-8.6,3-12
			s-0.5-5.8-1.6-7.4C510.1,1169.4,508.7,1168.6,506.9,1168.6z"/>
		<path id="XMLID_239_" class="st2" d="M560.1,1191h-0.7c-3,5.9-6.4,8.9-10.4,8.9c-2.3,0-4.1-1-5.7-3c-1.5-2-2.3-4.4-2.3-7.3
			s0.4-5.6,1.2-8.1c0.8-2.5,1.8-4.8,3.2-7c1.4-2.2,3.2-4,5.5-5.3c2.3-1.4,4.7-2.1,7.1-2.1c4.6,0,7.9,2,9.8,6l-1,1.3
			c-2.3-3.7-5.1-5.6-8.4-5.6c-2.1,0-3.9,0.7-5.7,2.2c-1.7,1.5-3,3.4-4,5.6c-2,4.6-3,9-3,13c0,2.7,0.4,4.7,1.3,6c0.9,1.3,2.1,2,3.6,2
			c2.1,0,4.2-1.7,6.3-5.2c2.2-3.5,4.1-8.5,5.8-14.9L560.1,1191z M563.3,1195.5c0,1.6,0.6,2.4,1.8,2.4c0.9,0,1.9-0.6,3-1.8
			c1.1-1.2,2-3,2.7-5.2l1.2,0.3c-2.1,5.9-4.8,8.8-8.1,8.8c-3,0-4.5-1.9-4.5-5.7c0-3.8,3.1-17.1,9.4-39.9l-4.6,0.4l-0.1-1.2
			c3.3-0.4,6.4-1,9.3-1.8l1,0.7c-2,5.9-4.4,13.9-7.1,24C564.6,1186.5,563.3,1192.9,563.3,1195.5z"/>
		<path id="XMLID_242_" class="st2" d="M600.2,1168.9c1.3,1.2,1.9,3,1.9,5.3c0,2.3-0.9,4.3-2.7,5.9c-3,2.9-7.5,4.3-13.5,4.3
			c-1.8,0-3.3-0.1-4.6-0.4v-1.4c1.7,0.2,3.1,0.4,4.2,0.4c4,0,7.1-1,9.3-3c2.2-2,3.3-4.2,3.3-6.6c0-1.3-0.3-2.4-1-3.2
			c-0.7-0.9-1.8-1.3-3.5-1.3s-3.2,0.7-4.9,2.2c-1.7,1.5-3,3.3-3.9,5.5c-1.9,4.7-2.9,8.7-2.9,12.1c0,6.3,1.9,9.5,5.8,9.5
			c4.8,0,8.2-2.6,10.4-7.8l1.2,0.3c-1.2,2.9-2.8,5.2-5,6.8c-2.2,1.6-4.6,2.4-7.4,2.4c-2.7,0-5-1-6.9-3c-1.9-2-2.8-4.7-2.8-8.1
			s0.6-6.7,1.9-9.9c1.3-3.2,3.3-6,6-8.3s5.9-3.5,9.4-3.5C597,1167,598.9,1167.6,600.2,1168.9z"/>
		<path id="XMLID_244_" class="st2" d="M619.5,1168.8c-1.8,0-3.4,0.5-4.7,1.6c-1.3,1.1-1.9,2.4-1.9,4c0,1.6,0.7,3.1,2,4.5
			c1.3,1.3,2.8,2.5,4.4,3.3c1.6,0.9,3,2.1,4.4,3.5c1.3,1.4,2,3,2,4.6c0,3.1-1.2,5.4-3.6,7.1s-5.2,2.5-8.6,2.5
			c-3.4,0-6.3-0.8-8.9-2.4c0.8-1.6,1.6-4.5,2.3-8.5l1.2,0.2c-0.3,2-0.5,3.5-0.5,4.6c0,1.1,0.5,2.2,1.6,3.1c1.1,0.9,2.6,1.4,4.7,1.4
			c2,0,3.8-0.6,5.2-1.9s2.1-2.9,2.1-4.9c0-1.3-0.6-2.6-1.9-3.8c-1.3-1.2-2.7-2.2-4.2-3.1c-1.5-0.8-2.9-2-4.2-3.5
			c-1.3-1.5-1.9-3.1-1.9-4.9c0-2.6,1-4.9,3.1-6.7c2.1-1.8,4.8-2.7,8.2-2.7c2.6,0,5.3,0.6,7.8,1.9c-0.2,0.5-0.6,1.7-1.2,3.6
			s-1,3.6-1.3,5.3l-1.2-0.2c0.3-1.5,0.4-3,0.4-4.4c0-1.4-0.5-2.5-1.4-3.3C622.7,1169.2,621.3,1168.8,619.5,1168.8z"/>
		<path id="XMLID_246_" class="st2" d="M635.1,1194.5c0-2.5,1.8-10.6,5.3-24.1l-4.6,0.4l-0.1-1.2c3.3-0.4,6.4-1,9.3-1.8l1,0.7
			c-1.7,5-3.3,10.3-4.8,16.1c-1.5,5.7-2.2,9.4-2.2,11c0,1.6,0.6,2.4,1.8,2.4c0.9,0,1.9-0.6,3-1.8c1.1-1.2,2-3,2.7-5.2l1.2,0.3
			c-2.1,5.9-4.8,8.8-8.1,8.8C636.6,1199.9,635.1,1198.1,635.1,1194.5z M643.2,1159.8c-0.6-0.6-0.9-1.4-0.9-2.3
			c0-0.9,0.3-1.7,0.9-2.3c0.6-0.6,1.4-0.9,2.3-0.9c0.9,0,1.7,0.3,2.3,0.9c0.6,0.6,0.9,1.4,0.9,2.3c0,0.9-0.3,1.7-0.9,2.3
			c-0.6,0.6-1.4,0.9-2.3,0.9C644.6,1160.8,643.9,1160.5,643.2,1159.8z"/>
		<path id="XMLID_249_" class="st2" d="M657.9,1194.8l11.4,2.6c2.5,0.6,4.3,1.4,5.3,2.3s1.6,2.3,1.6,4.1c0,2.8-1.5,5.4-4.6,7.9
			c-3,2.5-6.5,3.7-10.4,3.7s-7-0.9-9.5-2.7c-2.4-1.8-3.6-3.9-3.6-6.3c0-1.7,0.6-3.3,1.7-4.8s2.8-2.8,5-3.9l1.4,0.4
			c-1.4,0.7-2.5,1.8-3.3,3.3c-0.8,1.5-1.2,3-1.2,4.6c0,2.7,0.9,4.7,2.7,6c1.8,1.3,4.1,2,6.9,2c2.8,0,5.4-0.8,7.8-2.4
			c2.4-1.6,3.6-3.5,3.6-5.8c0-2.3-1.5-3.7-4.4-4.4l-12.4-2.7c-1.4-0.3-2.5-0.9-3.2-1.9c-0.8-1-1.2-2.2-1.2-3.7c0-1.4,0.6-2.8,1.8-4
			c1.2-1.2,2.9-1.8,5-1.8h7.3l-0.2,1h-7.1c-1,0-1.8,0.3-2.4,0.9c-0.6,0.6-0.9,1.4-0.9,2.2C655.1,1193.3,656,1194.4,657.9,1194.8z
			 M656.9,1180.5c0-3.6,1.3-6.7,3.8-9.4c2.5-2.7,5.6-4.1,9.3-4.1c2.6,0,4.6,0.7,6.2,2.1s2.3,3.3,2.3,5.8c0,4-1.3,7.3-3.9,9.8
			c-2.6,2.5-5.6,3.7-9.1,3.7c-2.6,0-4.7-0.7-6.3-2.1S656.9,1183,656.9,1180.5z M669.9,1168.4c-2.6,0-4.8,1.5-6.5,4.4
			c-1.7,2.9-2.5,5.5-2.5,7.7c0,2.3,0.4,3.9,1.3,4.9c0.8,1,2,1.5,3.3,1.5c2.1,0,4.1-1.2,6-3.6c1.9-2.4,2.9-5.4,2.9-9.1
			c0-1.8-0.4-3.3-1.3-4.3S671.2,1168.4,669.9,1168.4z M670,1168l-0.1-1c1.3,0,2.5-0.3,3.4-1c0.9-0.6,1.4-1.5,1.4-2.6
			c0-1.1-0.8-2.1-2.3-3c0.8-1.6,1.7-2.4,2.8-2.4s1.9,0.3,2.4,0.9c0.6,0.6,0.8,1.4,0.8,2.4c0,1.7-0.8,3.2-2.3,4.6
			C674.7,1167.3,672.6,1168,670,1168z"/>
		<path id="XMLID_254_" class="st2" d="M712.9,1173.6c0,2.1-1.2,5.9-3.5,11.4c-2.3,5.5-3.5,9-3.5,10.6c0,1.5,0.6,2.3,1.8,2.3
			c0.9,0,1.9-0.6,3-1.8c1.1-1.2,2-3,2.7-5.2l1.2,0.3c-2.1,5.9-4.8,8.8-8.1,8.8c-3,0-4.5-1.6-4.5-4.9c0-1.4,1.1-4.8,3.3-10.4
			c2.2-5.5,3.3-9.1,3.3-10.7c0-3-1.1-4.5-3.3-4.5c-2.4,0-5,1.9-7.8,5.8c-3.2,4.7-6.1,12.6-8.6,23.8l-5,0.4l7.1-29.1l-4.6,0.4
			l-0.1-1.2c3.3-0.4,6.4-1,9.3-1.8l1,0.7c-2.3,5.3-4.3,11.4-6,18.2h0.6l1.2-3.2c2.6-7.2,5.4-12,8.4-14.1c1.4-1,2.6-1.6,3.6-1.9
			c0.9-0.3,2.1-0.4,3.5-0.4c1.4,0,2.6,0.6,3.6,1.7C712.4,1169.9,712.9,1171.5,712.9,1173.6z"/>
		<path id="XMLID_256_" class="st2" d="M720.5,1204.3h-2.4l17.9-52h2.4L720.5,1204.3z"/>
		<path id="XMLID_258_" class="st2" d="M765.6,1199l-5.1,0.4l2.6-9.9c0.3-1.1,0.7-2.7,1.3-4.9c0.6-2.2,1-3.8,1.3-5
			c0.8-3.2,1.2-5.3,1.2-6.4c0-1.1-0.3-2-0.8-2.8s-1.4-1.1-2.5-1.1c-2.4,0-5,2.4-7.8,7.3c-2.8,4.8-5.4,12.3-7.8,22.3l-5,0.4l7.1-29.1
			l-4.6,0.4l-0.1-1.2c3.3-0.4,6.4-1,9.3-1.8l1,0.7c-2.3,5.3-4.3,11.4-6,18.2h0.6l1.2-3.2c2.3-6.1,4.7-10.4,7.2-12.8
			c2.5-2.4,4.9-3.6,7.1-3.6c3.4,0,5,1.9,5,5.7c0,2.2-0.7,5.3-2.1,9.4l-1.5,4.5h0.6l1.2-3.2c2.6-7.2,5.4-12,8.4-14.1
			c1.4-1,2.6-1.6,3.6-1.9c0.9-0.3,2.1-0.4,3.3-0.4s2.4,0.6,3.2,1.7c0.9,1.2,1.3,2.8,1.3,4.8c0,2.1-1.2,5.9-3.5,11.4
			c-2.3,5.5-3.5,9-3.5,10.6c0,1.5,0.6,2.3,1.8,2.3c0.9,0,1.9-0.6,3-1.8c1.1-1.2,2-3,2.7-5.2l1.2,0.3c-2.1,5.9-4.8,8.8-8.1,8.8
			c-3,0-4.5-1.6-4.5-4.9c0-1.4,1.1-4.8,3.3-10.4c2.2-5.5,3.3-9.3,3.3-11.3c0-2.6-0.8-3.9-2.5-3.9c-2.4,0-5,1.9-7.8,5.8
			C771,1179.9,768.1,1187.8,765.6,1199z"/>
		<path id="XMLID_260_" class="st2" d="M795.7,1188.6c0-4.9,1.4-9.7,4.3-14.2c1.4-2.2,3.2-3.9,5.5-5.3c2.3-1.4,4.8-2.1,7.7-2.1
			c2.9,0,5.3,1,7.1,3c1.8,2,2.7,4.7,2.7,8.1c0,3.4-0.6,6.7-1.9,9.9c-1.2,3.2-3.2,6-5.9,8.4c-2.7,2.4-5.7,3.5-9.1,3.5
			c-3.4,0-6-1-7.8-3C796.6,1194.9,795.7,1192.2,795.7,1188.6z M812.6,1168.6c-2.6,0-4.9,1.3-6.9,3.9c-2,2.6-3.4,5.4-4.2,8.5
			c-0.8,3.1-1.3,5.9-1.3,8.6c0,2.7,0.5,4.8,1.6,6.3s2.6,2.3,4.5,2.3c1.9,0,3.7-0.8,5.3-2.3c1.7-1.5,3-3.4,3.9-5.7c2-4.6,3-8.6,3-12
			s-0.5-5.8-1.6-7.4C815.9,1169.4,814.4,1168.6,812.6,1168.6z"/>
		<path id="XMLID_263_" class="st2" d="M830.7,1170.5l0.4-1.4h16l-0.4,1.4H830.7z M842.2,1160.3l1,0.7c-1.1,3.4-2.6,8.6-4.4,15.8
			s-3,11.8-3.3,13.9c-0.4,2.1-0.6,3.7-0.6,4.7c0,1.6,0.6,2.4,1.8,2.4c0.9,0,1.9-0.6,3-1.8c1.1-1.2,2-3,2.7-5.2l1.2,0.3
			c-2.1,5.9-4.8,8.8-8.1,8.8c-3,0-4.5-1.8-4.5-5.4c0-3,1.8-11.3,5.3-24.9l-5.2-0.4c2.6,0,4.8-0.6,6.4-1.9
			C839.1,1165.9,840.7,1163.6,842.2,1160.3z"/>
		<path id="XMLID_266_" class="st2" d="M850.8,1194.5c0-2.5,1.8-10.6,5.3-24.1l-4.6,0.4l-0.1-1.2c3.3-0.4,6.4-1,9.3-1.8l1,0.7
			c-1.7,5-3.3,10.3-4.8,16.1c-1.5,5.7-2.2,9.4-2.2,11c0,1.6,0.6,2.4,1.8,2.4c0.9,0,1.9-0.6,3-1.8c1.1-1.2,2-3,2.7-5.2l1.2,0.3
			c-2.1,5.9-4.8,8.8-8.1,8.8C852.3,1199.9,850.8,1198.1,850.8,1194.5z M859,1159.8c-0.6-0.6-0.9-1.4-0.9-2.3c0-0.9,0.3-1.7,0.9-2.3
			c0.6-0.6,1.4-0.9,2.3-0.9c0.9,0,1.7,0.3,2.3,0.9c0.6,0.6,0.9,1.4,0.9,2.3c0,0.9-0.3,1.7-0.9,2.3c-0.6,0.6-1.4,0.9-2.3,0.9
			C860.3,1160.8,859.6,1160.5,859,1159.8z"/>
		<path id="XMLID_269_" class="st2" d="M868.5,1188.6c0-4.9,1.4-9.7,4.3-14.2c1.4-2.2,3.2-3.9,5.5-5.3c2.3-1.4,4.8-2.1,7.7-2.1
			c2.9,0,5.3,1,7.1,3c1.8,2,2.7,4.7,2.7,8.1c0,3.4-0.6,6.7-1.9,9.9c-1.2,3.2-3.2,6-5.9,8.4c-2.7,2.4-5.7,3.5-9.1,3.5
			c-3.4,0-6-1-7.8-3C869.4,1194.9,868.5,1192.2,868.5,1188.6z M885.5,1168.6c-2.6,0-4.9,1.3-6.9,3.9c-2,2.6-3.4,5.4-4.2,8.5
			c-0.8,3.1-1.3,5.9-1.3,8.6c0,2.7,0.5,4.8,1.6,6.3s2.6,2.3,4.5,2.3c1.9,0,3.7-0.8,5.3-2.3c1.7-1.5,3-3.4,3.9-5.7c2-4.6,3-8.6,3-12
			s-0.5-5.8-1.6-7.4C888.7,1169.4,887.3,1168.6,885.5,1168.6z"/>
		<path id="XMLID_272_" class="st2" d="M931,1173.6c0,2.1-1.2,5.9-3.5,11.4c-2.3,5.5-3.5,9-3.5,10.6c0,1.5,0.6,2.3,1.8,2.3
			c0.9,0,1.9-0.6,3-1.8c1.1-1.2,2-3,2.7-5.2l1.2,0.3c-2.1,5.9-4.8,8.8-8.1,8.8c-3,0-4.5-1.6-4.5-4.9c0-1.4,1.1-4.8,3.3-10.4
			c2.2-5.5,3.3-9.1,3.3-10.7c0-3-1.1-4.5-3.3-4.5c-2.4,0-5,1.9-7.8,5.8c-3.2,4.7-6.1,12.6-8.6,23.8l-5,0.4l7.1-29.1l-4.6,0.4
			l-0.1-1.2c3.3-0.4,6.4-1,9.3-1.8l1,0.7c-2.3,5.3-4.3,11.4-6,18.2h0.6l1.2-3.2c2.6-7.2,5.4-12,8.4-14.1c1.4-1,2.6-1.6,3.6-1.9
			c0.9-0.3,2.1-0.4,3.5-0.4c1.4,0,2.6,0.6,3.6,1.7C930.5,1169.9,931,1171.5,931,1173.6z"/>
		<path id="XMLID_274_" class="st2" d="M938.7,1204.3h-2.4l17.9-52h2.4L938.7,1204.3z"/>
		<path id="XMLID_276_" class="st2" d="M963.2,1153.6h12l-0.2,1.3h-3.4l4.1,36.2l19.4-36.2h-3.4l0.2-1.3h9.3l-0.2,1.3h-2.5
			c-0.7,0-1.2,0.3-1.5,1l-23.2,43.1h-2.3l-4.9-43.1c-0.1-0.7-0.5-1-1.1-1H963L963.2,1153.6z"/>
		<path id="XMLID_278_" class="st2" d="M999.1,1194.5c0-2.5,1.8-10.6,5.3-24.1l-4.6,0.4l-0.1-1.2c3.3-0.4,6.4-1,9.3-1.8l1,0.7
			c-1.7,5-3.3,10.3-4.8,16.1c-1.5,5.7-2.2,9.4-2.2,11c0,1.6,0.6,2.4,1.8,2.4c0.9,0,1.9-0.6,3-1.8c1.1-1.2,2-3,2.7-5.2l1.2,0.3
			c-2.1,5.9-4.8,8.8-8.1,8.8C1000.6,1199.9,999.1,1198.1,999.1,1194.5z M1007.2,1159.8c-0.6-0.6-0.9-1.4-0.9-2.3
			c0-0.9,0.3-1.7,0.9-2.3c0.6-0.6,1.4-0.9,2.3-0.9c0.9,0,1.7,0.3,2.3,0.9c0.6,0.6,0.9,1.4,0.9,2.3c0,0.9-0.3,1.7-0.9,2.3
			c-0.6,0.6-1.4,0.9-2.3,0.9C1008.6,1160.8,1007.8,1160.5,1007.2,1159.8z"/>
		<path id="XMLID_281_" class="st2" d="M1035.8,1191h-0.7c-3,5.9-6.4,8.9-10.4,8.9c-2.3,0-4.1-1-5.7-3c-1.5-2-2.3-4.4-2.3-7.3
			s0.4-5.6,1.2-8.1c0.8-2.5,1.8-4.8,3.2-7c1.4-2.2,3.2-4,5.5-5.3c2.3-1.4,4.7-2.1,7.1-2.1c4.6,0,7.9,2,9.8,6l-1,1.3
			c-2.3-3.7-5.1-5.6-8.4-5.6c-2.1,0-3.9,0.7-5.7,2.2c-1.7,1.5-3,3.4-4,5.6c-2,4.6-3,9-3,13c0,2.7,0.4,4.7,1.3,6c0.9,1.3,2.1,2,3.6,2
			c2.1,0,4.2-1.7,6.3-5.2s4.1-8.5,5.8-14.9L1035.8,1191z M1039,1195.5c0,1.6,0.6,2.4,1.8,2.4c0.9,0,1.9-0.6,3-1.8
			c1.1-1.2,2-3,2.7-5.2l1.2,0.3c-2.1,5.9-4.8,8.8-8.1,8.8c-3,0-4.5-1.9-4.5-5.7c0-3.8,3.1-17.1,9.4-39.9l-4.6,0.4l-0.1-1.2
			c3.3-0.4,6.4-1,9.3-1.8l1,0.7c-2,5.9-4.4,13.9-7.1,24C1040.3,1186.5,1039,1192.9,1039,1195.5z"/>
		<path id="XMLID_284_" class="st2" d="M1075.9,1168.9c1.3,1.2,1.9,3,1.9,5.3c0,2.3-0.9,4.3-2.7,5.9c-3,2.9-7.5,4.3-13.5,4.3
			c-1.8,0-3.3-0.1-4.6-0.4v-1.4c1.7,0.2,3.1,0.4,4.2,0.4c4,0,7.1-1,9.3-3c2.2-2,3.3-4.2,3.3-6.6c0-1.3-0.3-2.4-1-3.2
			c-0.7-0.9-1.8-1.3-3.5-1.3c-1.6,0-3.2,0.7-4.9,2.2c-1.7,1.5-3,3.3-3.9,5.5c-1.9,4.7-2.9,8.7-2.9,12.1c0,6.3,1.9,9.5,5.8,9.5
			c4.8,0,8.2-2.6,10.4-7.8l1.2,0.3c-1.2,2.9-2.8,5.2-5,6.8c-2.2,1.6-4.6,2.4-7.4,2.4c-2.7,0-5-1-6.9-3c-1.9-2-2.8-4.7-2.8-8.1
			s0.6-6.7,1.9-9.9c1.3-3.2,3.3-6,6-8.3s5.9-3.5,9.4-3.5C1072.7,1167,1074.6,1167.6,1075.9,1168.9z"/>
		<path id="XMLID_286_" class="st2" d="M1081.4,1188.6c0-4.9,1.4-9.7,4.3-14.2c1.4-2.2,3.2-3.9,5.5-5.3c2.3-1.4,4.8-2.1,7.7-2.1
			c2.9,0,5.3,1,7.1,3c1.8,2,2.7,4.7,2.7,8.1c0,3.4-0.6,6.7-1.9,9.9c-1.2,3.2-3.2,6-5.9,8.4c-2.7,2.4-5.7,3.5-9.1,3.5
			c-3.4,0-6-1-7.8-3C1082.3,1194.9,1081.4,1192.2,1081.4,1188.6z M1098.3,1168.6c-2.6,0-4.9,1.3-6.9,3.9c-2,2.6-3.4,5.4-4.2,8.5
			c-0.8,3.1-1.3,5.9-1.3,8.6c0,2.7,0.5,4.8,1.6,6.3s2.6,2.3,4.5,2.3c1.9,0,3.7-0.8,5.3-2.3c1.7-1.5,3-3.4,3.9-5.7c2-4.6,3-8.6,3-12
			s-0.5-5.8-1.6-7.4C1101.5,1169.4,1100.1,1168.6,1098.3,1168.6z"/>
		<path id="XMLID_289_" class="st2" d="M1134.4,1170.5l0.4-1.4h16l-0.4,1.4H1134.4z M1145.9,1160.3l1,0.7c-1.1,3.4-2.6,8.6-4.4,15.8
			s-3,11.8-3.3,13.9c-0.4,2.1-0.6,3.7-0.6,4.7c0,1.6,0.6,2.4,1.8,2.4c0.9,0,1.9-0.6,3-1.8c1.1-1.2,2-3,2.7-5.2l1.2,0.3
			c-2.1,5.9-4.8,8.8-8.1,8.8c-3,0-4.5-1.8-4.5-5.4c0-3,1.8-11.3,5.3-24.9l-5.2-0.4c2.6,0,4.8-0.6,6.4-1.9
			C1142.8,1165.9,1144.4,1163.6,1145.9,1160.3z"/>
		<path id="XMLID_292_" class="st2" d="M1157.2,1199l-5,0.4l11.3-45.1l-4.6,0.4l-0.1-1.2c3.3-0.4,6.4-1,9.3-1.8l1,0.7
			c-3.9,11.3-7.3,22.7-10.3,34.2h0.6l1.2-3.2c2.6-7.2,5.4-12,8.4-14.1c1.4-1,2.6-1.6,3.6-1.9c0.9-0.3,2.1-0.4,3.5-0.4
			c1.4,0,2.6,0.6,3.6,1.7c1,1.2,1.5,2.8,1.5,4.8c0,2.1-1.2,5.9-3.5,11.4c-2.3,5.5-3.5,9-3.5,10.6c0,1.5,0.6,2.3,1.8,2.3
			c0.9,0,1.9-0.6,3-1.8c1.1-1.2,2-3,2.7-5.2l1.2,0.3c-2.1,5.9-4.8,8.8-8.1,8.8c-3,0-4.5-1.6-4.5-4.9c0-1.4,1.1-4.8,3.3-10.4
			c2.2-5.5,3.3-9.1,3.3-10.7c0-3-1.1-4.5-3.3-4.5c-2.4,0-5,1.9-7.8,5.8C1162.5,1179.9,1159.7,1187.8,1157.2,1199z"/>
		<path id="XMLID_294_" class="st2" d="M1212.4,1184.5c-1.5,5.7-2.2,9.4-2.2,11c0,1.6,0.6,2.4,1.8,2.4c0.9,0,1.9-0.6,3-1.8
			c1.1-1.2,2-3,2.7-5.2l1.2,0.3c-2.1,5.9-4.8,8.8-8.1,8.8c-3,0-4.5-1.8-4.5-5.4c0-0.7,0.1-1.9,0.4-3.5h-0.4c-3,5.9-6.4,8.9-10.4,8.9
			c-2.3,0-4.1-1-5.7-3c-1.5-2-2.3-4.4-2.3-7.3s0.4-5.6,1.2-8.1c0.8-2.5,1.8-4.8,3.2-7c1.4-2.2,3.2-4,5.5-5.3
			c2.3-1.4,4.8-2.1,7.6-2.1c3.6,0,6.4,1.5,8.4,4.5l2.2-3.9l1,0.7C1215.5,1173.4,1213.9,1178.7,1212.4,1184.5z M1197.6,1197.7
			c2,0,4.1-1.6,6.1-4.7c2.4-3.6,4.5-9.5,6.6-17.6c0.4-1.9,0.8-3.3,1-4.2c-1.7-1.6-3.6-2.4-5.8-2.4c-2.2,0-4.1,0.7-5.8,2.2
			c-1.7,1.5-3,3.4-4,5.6c-2,4.6-3,9-3,13c0,2.7,0.4,4.7,1.3,6C1195,1197,1196.1,1197.7,1197.6,1197.7z"/>
		<path id="XMLID_297_" class="st2" d="M1225.9,1170.5l0.4-1.4h16l-0.4,1.4H1225.9z M1237.4,1160.3l1,0.7c-1.1,3.4-2.6,8.6-4.4,15.8
			s-3,11.8-3.3,13.9c-0.4,2.1-0.6,3.7-0.6,4.7c0,1.6,0.6,2.4,1.8,2.4c0.9,0,1.9-0.6,3-1.8c1.1-1.2,2-3,2.7-5.2l1.2,0.3
			c-2.1,5.9-4.8,8.8-8.1,8.8c-3,0-4.5-1.8-4.5-5.4c0-3,1.8-11.3,5.3-24.9l-5.2-0.4c2.6,0,4.8-0.6,6.4-1.9
			C1234.3,1165.9,1235.9,1163.6,1237.4,1160.3z"/>
		<path id="XMLID_300_" class="st2" d="M351.4,1294.5c-1.5,5.7-2.2,9.4-2.2,11c0,1.6,0.6,2.4,1.8,2.4c0.9,0,1.9-0.6,3-1.8
			c1.1-1.2,2-3,2.7-5.2l1.2,0.3c-2.1,5.9-4.8,8.8-8.1,8.8c-3,0-4.5-1.8-4.5-5.4c0-0.7,0.1-1.9,0.4-3.5h-0.4c-3,5.9-6.4,8.9-10.4,8.9
			c-2.3,0-4.1-1-5.7-3c-1.5-2-2.3-4.4-2.3-7.3s0.4-5.6,1.2-8.1c0.8-2.5,1.8-4.8,3.2-7c1.4-2.2,3.2-4,5.5-5.3
			c2.3-1.4,4.8-2.1,7.6-2.1c3.6,0,6.4,1.5,8.4,4.5l2.2-3.9l1,0.7C354.5,1283.4,352.9,1288.7,351.4,1294.5z M336.7,1307.7
			c2,0,4.1-1.6,6.1-4.7c2.4-3.6,4.5-9.5,6.6-17.6c0.4-1.9,0.8-3.3,1-4.2c-1.7-1.6-3.6-2.4-5.8-2.4c-2.2,0-4.1,0.7-5.8,2.2
			c-1.7,1.5-3,3.4-4,5.6c-2,4.6-3,9-3,13c0,2.7,0.4,4.7,1.3,6C334,1307,335.2,1307.7,336.7,1307.7z"/>
		<path id="XMLID_303_" class="st2" d="M392.4,1283.6c0,2.1-1.2,5.9-3.5,11.4c-2.3,5.5-3.5,9-3.5,10.6c0,1.5,0.6,2.3,1.8,2.3
			c0.9,0,1.9-0.6,3-1.8c1.1-1.2,2-3,2.7-5.2l1.2,0.3c-2.1,5.9-4.8,8.8-8.1,8.8c-3,0-4.5-1.6-4.5-4.9c0-1.4,1.1-4.8,3.3-10.4
			c2.2-5.5,3.3-9.1,3.3-10.7c0-3-1.1-4.5-3.3-4.5c-2.4,0-5,1.9-7.8,5.8c-3.2,4.7-6.1,12.6-8.6,23.8l-5,0.4l7.1-29.1l-4.6,0.4
			l-0.1-1.2c3.3-0.4,6.4-1,9.3-1.8l1,0.7c-2.3,5.3-4.3,11.4-6,18.2h0.6l1.2-3.2c2.6-7.2,5.4-12,8.4-14.1c1.4-1,2.6-1.6,3.6-1.9
			c0.9-0.3,2.1-0.4,3.5-0.4s2.6,0.6,3.6,1.7C391.9,1279.9,392.4,1281.5,392.4,1283.6z"/>
		<path id="XMLID_305_" class="st2" d="M419.9,1300.8c3-4.5,4.6-8.7,4.6-12.6s-1.2-7.1-3.7-9.6c1.2-1,2.3-1.5,3.3-1.5
			c1.9,0,2.8,2.6,2.8,7.9c0,5.3-0.6,10.1-1.7,14.5c-1.2,4.4-2.7,8.1-4.5,11.2s-3.9,5.7-6.3,8c-4.6,4.5-9.2,6.8-13.9,6.8
			c-2.4,0-4.2-0.6-5.4-1.7c-1.2-1.1-1.8-2.4-1.8-3.9c0-1.5,0.3-2.8,0.9-4c0.6-1.2,1.5-1.8,2.7-1.8s2.2,0.3,3,1
			c-1.4,1.8-2.1,3.4-2.1,4.9c0,2.4,1.3,3.6,3.8,3.6c1.7,0,3.6-0.6,5.8-1.8c2.2-1.2,4.4-3,6.7-5.2c2.3-2.2,4.3-5.2,6.2-9
			c1.9-3.7,3.2-7.8,4-12.2c-1.6,4.2-3.7,7.6-6.4,10.4c-2.7,2.7-5.7,4.1-9.2,4.1c-1.8,0-3.2-0.6-4.3-1.8c-1.1-1.2-1.6-2.9-1.6-5
			s0.8-5.8,2.4-11.1c1.6-5.3,2.4-8.7,2.4-10.4s-0.6-2.5-1.9-2.5c-0.9,0-1.9,0.6-2.9,1.8c-1,1.2-1.8,3-2.4,5.2l-1.2-0.3
			c1.8-5.9,4.3-8.8,7.7-8.8c3.1,0,4.7,1.7,4.7,5c0,1.3-0.7,4.7-2.2,10c-1.5,5.3-2.2,8.8-2.2,10.5c0,3.3,1.2,4.9,3.7,4.9
			C413.8,1307.5,416.9,1305.2,419.9,1300.8z"/>
		<path id="XMLID_307_" class="st2" d="M435.2,1280.5l0.4-1.4h16l-0.4,1.4H435.2z M446.6,1270.3l1,0.7c-1.1,3.4-2.6,8.6-4.4,15.8
			c-1.8,7.2-3,11.8-3.3,13.9c-0.4,2.1-0.6,3.7-0.6,4.7c0,1.6,0.6,2.4,1.8,2.4c0.9,0,1.9-0.6,3-1.8c1.1-1.2,2-3,2.7-5.2l1.2,0.3
			c-2.1,5.9-4.8,8.8-8.1,8.8c-3,0-4.5-1.8-4.5-5.4c0-3,1.8-11.3,5.3-24.9l-5.2-0.4c2.6,0,4.8-0.6,6.4-1.9
			C443.6,1275.9,445.1,1273.6,446.6,1270.3z"/>
		<path id="XMLID_310_" class="st2" d="M457.9,1309l-5,0.4l11.3-45.1l-4.6,0.4l-0.1-1.2c3.3-0.4,6.4-1,9.3-1.8l1,0.7
			c-3.9,11.3-7.3,22.7-10.3,34.2h0.6l1.2-3.2c2.6-7.2,5.4-12,8.4-14.1c1.4-1,2.6-1.6,3.6-1.9c0.9-0.3,2.1-0.4,3.5-0.4
			c1.4,0,2.6,0.6,3.6,1.7c1,1.2,1.5,2.8,1.5,4.8c0,2.1-1.2,5.9-3.5,11.4c-2.3,5.5-3.5,9-3.5,10.6c0,1.5,0.6,2.3,1.8,2.3
			c0.9,0,1.9-0.6,3-1.8c1.1-1.2,2-3,2.7-5.2l1.2,0.3c-2.1,5.9-4.8,8.8-8.1,8.8c-3,0-4.5-1.6-4.5-4.9c0-1.4,1.1-4.8,3.3-10.4
			c2.2-5.5,3.3-9.1,3.3-10.7c0-3-1.1-4.5-3.3-4.5c-2.4,0-5,1.9-7.8,5.8C463.3,1289.9,460.4,1297.8,457.9,1309z"/>
		<path id="XMLID_312_" class="st2" d="M490.9,1304.5c0-2.5,1.8-10.6,5.3-24.1l-4.6,0.4l-0.1-1.2c3.3-0.4,6.4-1,9.3-1.8l1,0.7
			c-1.7,5-3.3,10.3-4.8,16.1c-1.5,5.7-2.2,9.4-2.2,11c0,1.6,0.6,2.4,1.8,2.4c0.9,0,1.9-0.6,3-1.8c1.1-1.2,2-3,2.7-5.2l1.2,0.3
			c-2.1,5.9-4.8,8.8-8.1,8.8C492.4,1309.9,490.9,1308.1,490.9,1304.5z M499,1269.8c-0.6-0.6-0.9-1.4-0.9-2.3c0-0.9,0.3-1.7,0.9-2.3
			c0.6-0.6,1.4-0.9,2.3-0.9c0.9,0,1.7,0.3,2.3,0.9c0.6,0.6,0.9,1.4,0.9,2.3c0,0.9-0.3,1.7-0.9,2.3c-0.6,0.6-1.4,0.9-2.3,0.9
			C500.4,1270.8,499.7,1270.5,499,1269.8z"/>
		<path id="XMLID_315_" class="st2" d="M538,1283.6c0,2.1-1.2,5.9-3.5,11.4c-2.3,5.5-3.5,9-3.5,10.6c0,1.5,0.6,2.3,1.8,2.3
			c0.9,0,1.9-0.6,3-1.8c1.1-1.2,2-3,2.7-5.2l1.2,0.3c-2.1,5.9-4.8,8.8-8.1,8.8c-3,0-4.5-1.6-4.5-4.9c0-1.4,1.1-4.8,3.3-10.4
			c2.2-5.5,3.3-9.1,3.3-10.7c0-3-1.1-4.5-3.3-4.5c-2.4,0-5,1.9-7.8,5.8c-3.2,4.7-6.1,12.6-8.6,23.8l-5,0.4l7.1-29.1l-4.6,0.4
			l-0.1-1.2c3.3-0.4,6.4-1,9.3-1.8l1,0.7c-2.3,5.3-4.3,11.4-6,18.2h0.6l1.2-3.2c2.6-7.2,5.4-12,8.4-14.1c1.4-1,2.6-1.6,3.6-1.9
			c0.9-0.3,2.1-0.4,3.5-0.4c1.4,0,2.6,0.6,3.6,1.7C537.5,1279.9,538,1281.5,538,1283.6z"/>
		<path id="XMLID_317_" class="st2" d="M549.9,1304.8l11.4,2.6c2.5,0.6,4.3,1.4,5.3,2.3c1.1,1,1.6,2.3,1.6,4.1
			c0,2.8-1.5,5.4-4.6,7.9c-3,2.5-6.5,3.7-10.4,3.7c-3.9,0-7-0.9-9.5-2.7c-2.4-1.8-3.6-3.9-3.6-6.3c0-1.7,0.6-3.3,1.7-4.8
			c1.1-1.5,2.8-2.8,5-3.9l1.4,0.4c-1.4,0.7-2.5,1.8-3.3,3.3c-0.8,1.5-1.2,3-1.2,4.6c0,2.7,0.9,4.7,2.7,6c1.8,1.3,4.1,2,6.9,2
			c2.8,0,5.4-0.8,7.8-2.4c2.4-1.6,3.6-3.5,3.6-5.8c0-2.3-1.5-3.7-4.4-4.4l-12.4-2.7c-1.4-0.3-2.5-0.9-3.2-1.9
			c-0.8-1-1.2-2.2-1.2-3.7c0-1.4,0.6-2.8,1.8-4c1.2-1.2,2.9-1.8,5-1.8h7.3l-0.2,1h-7.1c-1,0-1.8,0.3-2.4,0.9
			c-0.6,0.6-0.9,1.4-0.9,2.2C547.1,1303.3,548,1304.4,549.9,1304.8z M548.9,1290.5c0-3.6,1.3-6.7,3.8-9.4c2.5-2.7,5.6-4.1,9.3-4.1
			c2.6,0,4.6,0.7,6.2,2.1c1.5,1.4,2.3,3.3,2.3,5.8c0,4-1.3,7.3-3.9,9.8c-2.6,2.5-5.6,3.7-9.1,3.7c-2.6,0-4.7-0.7-6.3-2.1
			S548.9,1293,548.9,1290.5z M561.9,1278.4c-2.6,0-4.8,1.5-6.5,4.4c-1.7,2.9-2.5,5.5-2.5,7.7c0,2.3,0.4,3.9,1.3,4.9
			c0.8,1,2,1.5,3.3,1.5c2.1,0,4.1-1.2,6-3.6c1.9-2.4,2.9-5.4,2.9-9.1c0-1.8-0.4-3.3-1.3-4.3C564.3,1278.9,563.2,1278.4,561.9,1278.4
			z M562,1278l-0.1-1c1.3,0,2.5-0.3,3.4-1c0.9-0.6,1.4-1.5,1.4-2.6c0-1.1-0.8-2.1-2.3-3c0.8-1.6,1.7-2.4,2.8-2.4s1.9,0.3,2.4,0.9
			c0.6,0.6,0.8,1.4,0.8,2.4c0,1.7-0.8,3.2-2.3,4.6C566.7,1277.3,564.6,1278,562,1278z"/>
		<path id="XMLID_322_" class="st2" d="M610.5,1278.8c-2,0-3.8,0.7-5.4,2.2c-1.7,1.5-3,3.3-3.9,5.5c-1.9,4.7-2.9,8.7-2.9,12.1
			c0,6.3,1.9,9.5,5.8,9.5c4.8,0,8.2-2.6,10.4-7.8l1.2,0.3c-1.2,2.9-2.8,5.2-5,6.8c-2.2,1.6-4.6,2.4-7.4,2.4c-2.7,0-5-1-6.9-3
			c-1.9-2-2.8-4.7-2.8-8.1s0.6-6.7,1.9-9.9c1.3-3.2,3.3-6,6-8.3s5.9-3.5,9.4-3.5c2.4,0,4.2,0.6,5.4,1.8c1.2,1.2,1.8,2.7,1.8,4.4
			c0,1.7-0.3,3.2-0.9,4.6c-0.6,1.3-1.5,2-2.8,2c-1.3,0-2.2-0.4-2.8-1.2c1.4-2.1,2.1-4.2,2.1-6.2
			C613.7,1280,612.6,1278.8,610.5,1278.8z"/>
		<path id="XMLID_324_" class="st2" d="M646.5,1294.5c-1.5,5.7-2.2,9.4-2.2,11c0,1.6,0.6,2.4,1.8,2.4c0.9,0,1.9-0.6,3-1.8
			c1.1-1.2,2-3,2.7-5.2l1.2,0.3c-2.1,5.9-4.8,8.8-8.1,8.8c-3,0-4.5-1.8-4.5-5.4c0-0.7,0.1-1.9,0.4-3.5h-0.4c-3,5.9-6.4,8.9-10.4,8.9
			c-2.3,0-4.1-1-5.7-3c-1.5-2-2.3-4.4-2.3-7.3s0.4-5.6,1.2-8.1c0.8-2.5,1.8-4.8,3.2-7c1.4-2.2,3.2-4,5.5-5.3
			c2.3-1.4,4.8-2.1,7.6-2.1c3.6,0,6.4,1.5,8.4,4.5l2.2-3.9l1,0.7C649.6,1283.4,648,1288.7,646.5,1294.5z M631.7,1307.7
			c2,0,4.1-1.6,6.1-4.7c2.4-3.6,4.5-9.5,6.6-17.6c0.4-1.9,0.8-3.3,1-4.2c-1.7-1.6-3.6-2.4-5.8-2.4c-2.2,0-4.1,0.7-5.8,2.2
			c-1.7,1.5-3,3.4-4,5.6c-2,4.6-3,9-3,13c0,2.7,0.4,4.7,1.3,6C629,1307,630.2,1307.7,631.7,1307.7z"/>
		<path id="XMLID_327_" class="st2" d="M687.5,1283.6c0,2.1-1.2,5.9-3.5,11.4c-2.3,5.5-3.5,9-3.5,10.6c0,1.5,0.6,2.3,1.8,2.3
			c0.9,0,1.9-0.6,3-1.8c1.1-1.2,2-3,2.7-5.2l1.2,0.3c-2.1,5.9-4.8,8.8-8.1,8.8c-3,0-4.5-1.6-4.5-4.9c0-1.4,1.1-4.8,3.3-10.4
			c2.2-5.5,3.3-9.1,3.3-10.7c0-3-1.1-4.5-3.3-4.5c-2.4,0-5,1.9-7.8,5.8c-3.2,4.7-6.1,12.6-8.6,23.8l-5,0.4l7.1-29.1l-4.6,0.4
			l-0.1-1.2c3.3-0.4,6.4-1,9.3-1.8l1,0.7c-2.3,5.3-4.3,11.4-6,18.2h0.6l1.2-3.2c2.6-7.2,5.4-12,8.4-14.1c1.4-1,2.6-1.6,3.6-1.9
			c0.9-0.3,2.1-0.4,3.5-0.4c1.4,0,2.6,0.6,3.6,1.7C686.9,1279.9,687.5,1281.5,687.5,1283.6z"/>
		<path id="XMLID_329_" class="st2" d="M718.7,1296.6h0.6l1.2-3.2c4-10.9,8.4-16.4,13.2-16.4c2.3,0,4.1,1,5.7,3
			c1.5,2,2.3,4.4,2.3,7.3s-0.4,5.6-1.2,8.1c-0.8,2.5-1.8,4.8-3.2,7c-1.4,2.2-3.2,4-5.5,5.3c-2.3,1.4-4.7,2.1-7.1,2.1
			c-2.4,0-4.5-0.5-6.2-1.4c-1.7-0.9-3.1-2.2-4-3.7l0.6-1.9c2.3,3.6,5.3,5.5,8.9,5.5c2.7,0,5.1-1.3,7.1-3.8c2-2.5,3.4-5.3,4.3-8.4
			s1.3-5.9,1.3-8.4c0-2.6-0.4-4.5-1.3-5.9s-1.8-2.1-2.9-2.1c-1.1,0-2.2,0.5-3.3,1.4c-1.1,0.9-2.3,2.4-3.6,4.4
			c-2.8,4.3-5.4,11.4-7.8,21.2l-2.2-2.3l-2.2,5.4l-1.2-0.4l11.3-45.1l-4.6,0.4l-0.1-1.2c3.3-0.4,6.4-1,9.3-1.8l1,0.7
			C725.1,1273.7,721.7,1285.1,718.7,1296.6z"/>
		<path id="XMLID_331_" class="st2" d="M765.4,1304.5c0-0.7,0.1-1.9,0.4-3.5h-0.4c-3.1,5.9-6.6,8.9-10.7,8.9c-4.3,0-6.5-2.4-6.5-7.2
			c0-3.1,1.1-8.9,3.3-17.4l1.3-5l-4.6,0.4l-0.1-1.2c3.3-0.4,6.4-1,9.3-1.8l1,0.7c-4,12.5-6,20.5-6,24s1.3,5.3,4,5.3
			c2.2,0,4.4-1.6,6.5-4.9c2.1-3.2,3.9-7.6,5.3-13.1l2.4-9.4l-4.6,0.4l-0.1-1.2c3.3-0.4,6.4-1,9.3-1.8l1,0.7
			c-1.7,5-3.3,10.3-4.8,16.1c-1.5,5.7-2.2,9.4-2.2,11c0,1.6,0.6,2.4,1.8,2.4c0.9,0,1.9-0.6,3-1.8c1.1-1.2,2-3,2.7-5.2l1.2,0.3
			c-2.1,5.9-4.8,8.8-8.1,8.8C766.9,1309.9,765.4,1308.1,765.4,1304.5z"/>
		<path id="XMLID_333_" class="st2" d="M795.2,1277.7l1,0.7c-2.3,5.3-4.3,11.4-6,18.2h0.6l1.2-3.2c2.3-6.1,4.5-10.4,6.7-12.8
			c2.2-2.4,4.1-3.6,5.8-3.6s2.8,0.5,3.6,1.6c0.8,1.1,1.2,2.4,1.2,4.1c0,1.7-0.3,3.1-0.9,4.4s-1.5,1.9-2.7,1.9
			c-1.2,0-2.1-0.4-2.9-1.2c0.5-0.6,0.9-1.5,1.4-2.7c0.4-1.2,0.6-2.3,0.6-3.2c0-1.4-0.6-2.1-1.7-2.1c-1.2,0-2.7,1.2-4.5,3.5
			c-3.9,5.1-7.2,13.6-9.9,25.6l-5,0.4l7.1-29.1l-4.6,0.4l-0.1-1.2C789.2,1279,792.3,1278.4,795.2,1277.7z"/>
		<path id="XMLID_335_" class="st2" d="M839.2,1283.6c0,2.1-1.2,5.9-3.5,11.4c-2.3,5.5-3.5,9-3.5,10.6c0,1.5,0.6,2.3,1.8,2.3
			c0.9,0,1.9-0.6,3-1.8c1.1-1.2,2-3,2.7-5.2l1.2,0.3c-2.1,5.9-4.8,8.8-8.1,8.8c-3,0-4.5-1.6-4.5-4.9c0-1.4,1.1-4.8,3.3-10.4
			c2.2-5.5,3.3-9.1,3.3-10.7c0-3-1.1-4.5-3.3-4.5c-2.4,0-5,1.9-7.8,5.8c-3.2,4.7-6.1,12.6-8.6,23.8l-5,0.4l7.1-29.1l-4.6,0.4
			l-0.1-1.2c3.3-0.4,6.4-1,9.3-1.8l1,0.7c-2.3,5.3-4.3,11.4-6,18.2h0.6l1.2-3.2c2.6-7.2,5.4-12,8.4-14.1c1.4-1,2.6-1.6,3.6-1.9
			c0.9-0.3,2.1-0.4,3.5-0.4c1.4,0,2.6,0.6,3.6,1.7C838.7,1279.9,839.2,1281.5,839.2,1283.6z"/>
		<path id="XMLID_337_" class="st2" d="M864.1,1298.6c0-4.9,1.4-9.7,4.3-14.2c1.4-2.2,3.2-3.9,5.5-5.3c2.3-1.4,4.8-2.1,7.7-2.1
			c2.9,0,5.3,1,7.1,3c1.8,2,2.7,4.7,2.7,8.1c0,3.4-0.6,6.7-1.9,9.9c-1.2,3.2-3.2,6-5.9,8.4c-2.7,2.4-5.7,3.5-9.1,3.5
			c-3.4,0-6-1-7.8-3C865,1304.9,864.1,1302.2,864.1,1298.6z M881,1278.6c-2.6,0-4.9,1.3-6.9,3.9c-2,2.6-3.4,5.4-4.2,8.5
			c-0.8,3.1-1.3,5.9-1.3,8.6c0,2.7,0.5,4.8,1.6,6.3s2.6,2.3,4.5,2.3c1.9,0,3.7-0.8,5.3-2.3c1.7-1.5,3-3.4,3.9-5.7c2-4.6,3-8.6,3-12
			s-0.5-5.8-1.6-7.4C884.3,1279.4,882.8,1278.6,881,1278.6z"/>
		<path id="XMLID_340_" class="st2" d="M916.7,1304.5c0-0.7,0.1-1.9,0.4-3.5h-0.4c-3.1,5.9-6.6,8.9-10.7,8.9c-4.3,0-6.5-2.4-6.5-7.2
			c0-3.1,1.1-8.9,3.3-17.4l1.3-5l-4.6,0.4l-0.1-1.2c3.3-0.4,6.4-1,9.3-1.8l1,0.7c-4,12.5-6,20.5-6,24s1.3,5.3,4,5.3
			c2.2,0,4.4-1.6,6.5-4.9c2.1-3.2,3.9-7.6,5.3-13.1l2.4-9.4l-4.6,0.4l-0.1-1.2c3.3-0.4,6.4-1,9.3-1.8l1,0.7
			c-1.7,5-3.3,10.3-4.8,16.1c-1.5,5.7-2.2,9.4-2.2,11c0,1.6,0.6,2.4,1.8,2.4c0.9,0,1.9-0.6,3-1.8c1.1-1.2,2-3,2.7-5.2l1.2,0.3
			c-2.1,5.9-4.8,8.8-8.1,8.8C918.2,1309.9,916.7,1308.1,916.7,1304.5z"/>
		<path id="XMLID_342_" class="st2" d="M946.4,1277.7l1,0.7c-2.3,5.3-4.3,11.4-6,18.2h0.6l1.2-3.2c2.3-6.1,4.5-10.4,6.7-12.8
			c2.2-2.4,4.1-3.6,5.8-3.6s2.8,0.5,3.6,1.6c0.8,1.1,1.2,2.4,1.2,4.1c0,1.7-0.3,3.1-0.9,4.4s-1.5,1.9-2.7,1.9
			c-1.2,0-2.1-0.4-2.9-1.2c0.5-0.6,0.9-1.5,1.4-2.7c0.4-1.2,0.6-2.3,0.6-3.2c0-1.4-0.6-2.1-1.7-2.1c-1.2,0-2.7,1.2-4.5,3.5
			c-3.9,5.1-7.2,13.6-9.9,25.6l-5,0.4l7.1-29.1l-4.6,0.4l-0.1-1.2C940.5,1279,943.6,1278.4,946.4,1277.7z"/>
		<path id="XMLID_344_" class="st2" d="M985.5,1296.6h0.6l1.2-3.2c4-10.9,8.4-16.4,13.2-16.4c2.3,0,4.1,1,5.7,3
			c1.5,2,2.3,4.4,2.3,7.3s-0.4,5.6-1.2,8.1c-0.8,2.5-1.8,4.8-3.2,7c-1.4,2.2-3.2,4-5.5,5.3c-2.3,1.4-4.7,2.1-7.1,2.1
			c-2.4,0-4.5-0.5-6.2-1.4c-1.7-0.9-3.1-2.2-4-3.7l0.6-1.9c2.3,3.6,5.3,5.5,8.9,5.5c2.7,0,5.1-1.3,7.1-3.8c2-2.5,3.4-5.3,4.3-8.4
			s1.3-5.9,1.3-8.4c0-2.6-0.4-4.5-1.3-5.9s-1.8-2.1-2.9-2.1c-1.1,0-2.2,0.5-3.3,1.4c-1.1,0.9-2.3,2.4-3.6,4.4
			c-2.8,4.3-5.4,11.4-7.8,21.2l-2.2-2.3l-2.2,5.4l-1.2-0.4l11.3-45.1l-4.6,0.4l-0.1-1.2c3.3-0.4,6.4-1,9.3-1.8l1,0.7
			C991.9,1273.7,988.5,1285.1,985.5,1296.6z"/>
		<path id="XMLID_346_" class="st2" d="M1024.8,1277.7l1,0.7c-2.3,5.3-4.3,11.4-6,18.2h0.6l1.2-3.2c2.3-6.1,4.5-10.4,6.7-12.8
			c2.2-2.4,4.1-3.6,5.8-3.6s2.8,0.5,3.6,1.6c0.8,1.1,1.2,2.4,1.2,4.1c0,1.7-0.3,3.1-0.9,4.4s-1.5,1.9-2.7,1.9
			c-1.2,0-2.1-0.4-2.9-1.2c0.5-0.6,0.9-1.5,1.4-2.7c0.4-1.2,0.6-2.3,0.6-3.2c0-1.4-0.6-2.1-1.7-2.1c-1.2,0-2.7,1.2-4.5,3.5
			c-3.9,5.1-7.2,13.6-9.9,25.6l-5,0.4l7.1-29.1l-4.6,0.4l-0.1-1.2C1018.8,1279,1021.9,1278.4,1024.8,1277.7z"/>
		<path id="XMLID_348_" class="st2" d="M1063.9,1294.5c-1.5,5.7-2.2,9.4-2.2,11c0,1.6,0.6,2.4,1.8,2.4c0.9,0,1.9-0.6,3-1.8
			c1.1-1.2,2-3,2.7-5.2l1.2,0.3c-2.1,5.9-4.8,8.8-8.1,8.8c-3,0-4.5-1.8-4.5-5.4c0-0.7,0.1-1.9,0.4-3.5h-0.4c-3,5.9-6.4,8.9-10.4,8.9
			c-2.3,0-4.1-1-5.7-3c-1.5-2-2.3-4.4-2.3-7.3s0.4-5.6,1.2-8.1c0.8-2.5,1.8-4.8,3.2-7c1.4-2.2,3.2-4,5.5-5.3
			c2.3-1.4,4.8-2.1,7.6-2.1c3.6,0,6.4,1.5,8.4,4.5l2.2-3.9l1,0.7C1066.9,1283.4,1065.4,1288.7,1063.9,1294.5z M1049.1,1307.7
			c2,0,4.1-1.6,6.1-4.7c2.4-3.6,4.5-9.5,6.6-17.6c0.4-1.9,0.8-3.3,1-4.2c-1.7-1.6-3.6-2.4-5.8-2.4c-2.2,0-4.1,0.7-5.8,2.2
			c-1.7,1.5-3,3.4-4,5.6c-2,4.6-3,9-3,13c0,2.7,0.4,4.7,1.3,6C1046.4,1307,1047.6,1307.7,1049.1,1307.7z"/>
		<path id="XMLID_351_" class="st2" d="M1077.6,1304.5c0-2.5,1.8-10.6,5.3-24.1l-4.6,0.4l-0.1-1.2c3.3-0.4,6.4-1,9.3-1.8l1,0.7
			c-1.7,5-3.3,10.3-4.8,16.1c-1.5,5.7-2.2,9.4-2.2,11c0,1.6,0.6,2.4,1.8,2.4c0.9,0,1.9-0.6,3-1.8c1.1-1.2,2-3,2.7-5.2l1.2,0.3
			c-2.1,5.9-4.8,8.8-8.1,8.8C1079.1,1309.9,1077.6,1308.1,1077.6,1304.5z M1085.8,1269.8c-0.6-0.6-0.9-1.4-0.9-2.3
			c0-0.9,0.3-1.7,0.9-2.3c0.6-0.6,1.4-0.9,2.3-0.9c0.9,0,1.7,0.3,2.3,0.9c0.6,0.6,0.9,1.4,0.9,2.3c0,0.9-0.3,1.7-0.9,2.3
			c-0.6,0.6-1.4,0.9-2.3,0.9C1087.1,1270.8,1086.4,1270.5,1085.8,1269.8z"/>
		<path id="XMLID_354_" class="st2" d="M1124.7,1283.6c0,2.1-1.2,5.9-3.5,11.4c-2.3,5.5-3.5,9-3.5,10.6c0,1.5,0.6,2.3,1.8,2.3
			c0.9,0,1.9-0.6,3-1.8c1.1-1.2,2-3,2.7-5.2l1.2,0.3c-2.1,5.9-4.8,8.8-8.1,8.8c-3,0-4.5-1.6-4.5-4.9c0-1.4,1.1-4.8,3.3-10.4
			c2.2-5.5,3.3-9.1,3.3-10.7c0-3-1.1-4.5-3.3-4.5c-2.4,0-5,1.9-7.8,5.8c-3.2,4.7-6.1,12.6-8.6,23.8l-5,0.4l7.1-29.1l-4.6,0.4
			l-0.1-1.2c3.3-0.4,6.4-1,9.3-1.8l1,0.7c-2.3,5.3-4.3,11.4-6,18.2h0.6l1.2-3.2c2.6-7.2,5.4-12,8.4-14.1c1.4-1,2.6-1.6,3.6-1.9
			c0.9-0.3,2.1-0.4,3.5-0.4c1.4,0,2.6,0.6,3.6,1.7C1124.2,1279.9,1124.7,1281.5,1124.7,1283.6z"/>
		<path id="XMLID_356_" class="st2" d="M1166.5,1278.8c-2,0-3.8,0.7-5.4,2.2c-1.7,1.5-3,3.3-3.9,5.5c-1.9,4.7-2.9,8.7-2.9,12.1
			c0,6.3,1.9,9.5,5.8,9.5c4.8,0,8.2-2.6,10.4-7.8l1.2,0.3c-1.2,2.9-2.8,5.2-5,6.8c-2.2,1.6-4.6,2.4-7.4,2.4c-2.7,0-5-1-6.9-3
			c-1.9-2-2.8-4.7-2.8-8.1s0.6-6.7,1.9-9.9c1.3-3.2,3.3-6,6-8.3s5.9-3.5,9.4-3.5c2.4,0,4.2,0.6,5.4,1.8c1.2,1.2,1.8,2.7,1.8,4.4
			c0,1.7-0.3,3.2-0.9,4.6c-0.6,1.3-1.5,2-2.8,2c-1.3,0-2.2-0.4-2.8-1.2c1.4-2.1,2.1-4.2,2.1-6.2
			C1169.7,1280,1168.6,1278.8,1166.5,1278.8z"/>
		<path id="XMLID_358_" class="st2" d="M1201.2,1278.9c1.3,1.2,1.9,3,1.9,5.3c0,2.3-0.9,4.3-2.7,5.9c-3,2.9-7.5,4.3-13.5,4.3
			c-1.8,0-3.3-0.1-4.6-0.4v-1.4c1.7,0.2,3.1,0.4,4.2,0.4c4,0,7.1-1,9.3-3c2.2-2,3.3-4.2,3.3-6.6c0-1.3-0.3-2.4-1-3.2
			c-0.7-0.9-1.8-1.3-3.5-1.3c-1.6,0-3.2,0.7-4.9,2.2c-1.7,1.5-3,3.3-3.9,5.5c-1.9,4.7-2.9,8.7-2.9,12.1c0,6.3,1.9,9.5,5.8,9.5
			c4.8,0,8.2-2.6,10.4-7.8l1.2,0.3c-1.2,2.9-2.8,5.2-5,6.8c-2.2,1.6-4.6,2.4-7.4,2.4c-2.7,0-5-1-6.9-3c-1.9-2-2.8-4.7-2.8-8.1
			s0.6-6.7,1.9-9.9c1.3-3.2,3.3-6,6-8.3s5.9-3.5,9.4-3.5C1198,1277,1199.9,1277.6,1201.2,1278.9z"/>
		<path id="XMLID_360_" class="st2" d="M1212,1305.5c0,1.6,0.6,2.4,1.8,2.4c0.9,0,1.9-0.6,3-1.8c1.1-1.2,2-3,2.7-5.2l1.2,0.3
			c-2.1,5.9-4.8,8.8-8.1,8.8c-3,0-4.5-1.9-4.5-5.7c0-3.8,3.1-17.1,9.4-39.9l-4.6,0.4l-0.1-1.2c3.3-0.4,6.4-1,9.3-1.8l1,0.7
			c-2,5.9-4.4,13.9-7.1,24C1213.4,1296.5,1212,1302.9,1212,1305.5z"/>
		<path id="XMLID_362_" class="st2" d="M1231.2,1305.5c0,1.6,0.6,2.4,1.8,2.4c0.9,0,1.9-0.6,3-1.8c1.1-1.2,2-3,2.7-5.2l1.2,0.3
			c-2.1,5.9-4.8,8.8-8.1,8.8c-3,0-4.5-1.9-4.5-5.7c0-3.8,3.1-17.1,9.4-39.9l-4.6,0.4l-0.1-1.2c3.3-0.4,6.4-1,9.3-1.8l1,0.7
			c-2,5.9-4.4,13.9-7.1,24C1232.5,1296.5,1231.2,1302.9,1231.2,1305.5z"/>
		<path id="XMLID_364_" class="st2" d="M1258.8,1278.8c-1.8,0-3.4,0.5-4.7,1.6c-1.3,1.1-1.9,2.4-1.9,4c0,1.6,0.7,3.1,2,4.5
			c1.3,1.3,2.8,2.5,4.4,3.3c1.6,0.9,3,2.1,4.4,3.5c1.3,1.4,2,3,2,4.6c0,3.1-1.2,5.4-3.6,7.1s-5.2,2.5-8.6,2.5
			c-3.4,0-6.3-0.8-8.9-2.4c0.8-1.6,1.6-4.5,2.3-8.5l1.2,0.2c-0.3,2-0.5,3.5-0.5,4.6c0,1.1,0.5,2.2,1.6,3.1c1.1,0.9,2.6,1.4,4.7,1.4
			c2,0,3.8-0.6,5.2-1.9s2.1-2.9,2.1-4.9c0-1.3-0.6-2.6-1.9-3.8c-1.3-1.2-2.7-2.2-4.2-3.1c-1.5-0.8-2.9-2-4.2-3.5
			c-1.3-1.5-1.9-3.1-1.9-4.9c0-2.6,1-4.9,3.1-6.7c2.1-1.8,4.8-2.7,8.2-2.7c2.6,0,5.3,0.6,7.8,1.9c-0.2,0.5-0.6,1.7-1.2,3.6
			s-1,3.6-1.3,5.3l-1.2-0.2c0.3-1.5,0.4-3,0.4-4.4c0-1.4-0.5-2.5-1.4-3.3C1262,1279.2,1260.6,1278.8,1258.8,1278.8z"/>
		<path id="XMLID_366_" class="st2" d="M1273.6,1308.7c-0.7-0.7-1.1-1.6-1.1-2.7c0-1.1,0.4-2,1.1-2.7c0.7-0.7,1.6-1.1,2.7-1.1
			c1.1,0,2,0.4,2.7,1.1c0.7,0.7,1.1,1.6,1.1,2.7c0,1.1-0.4,2-1.1,2.7c-0.7,0.7-1.6,1.1-2.7,1.1
			C1275.3,1309.9,1274.4,1309.5,1273.6,1308.7z"/>
	</g>
</g>
<g id="Layer_3">
	<g id="XMLID_2_">
		<path id="XMLID_3_" class="st2" d="M502.9,108.2L426.5,275h-8.1l-27.8-61.2L362.5,275h-8.1l-76.1-166.8H502.9z M374.4,173.9
			l-15.9-32.4h-27.6l28.8,60.4L374.4,173.9z M450.3,141.5h-55.4l27.6,59L450.3,141.5z"/>
		<path id="XMLID_7_" class="st2" d="M692.6,141.5h-77.8v30.7H679v33.3h-64.2v36.2h77.1V275H581.4V108.2h111.1V141.5z"/>
		<path id="XMLID_9_" class="st2" d="M1052.4,266.2v8.8H887.5v-8.8l80.4-158h9.8L1052.4,266.2z M1003.8,241.7l-31.9-68.1l-34.7,68.1
			H1003.8z"/>
		<path id="XMLID_19_" class="st2" d="M1186.3,108c27.6,0,50,22.6,50,50.2c0,20.2-13.1,41.9-33.8,45.5l34.7,71.4h-35.5l-31.2-66.9
			v-0.2L1154,172v102.8h-33.3V108H1186.3z M1188.5,174.6c8.1-1,14.5-7.9,14.5-16.4c0-9.3-7.4-16.9-16.7-16.9h-14.3L1188.5,174.6z"/>
		<path id="XMLID_22_" class="st2" d="M1421,141.5h-77.8v30.7h64.2v33.3h-64.2v36.2h77.1V275h-110.4V108.2H1421V141.5z"/>
		<path id="XMLID_24_" class="st2" d="M167.8,434.2c-32.4-20.9-81.1-1.4-81.1,43.3c0,46.9,51.6,65.7,83,41.9l21.4,24.5
			c-15,12.4-34.3,20-55.2,20c-47.6,0-86.4-38.8-86.4-86.4c0-47.6,38.8-86.4,86.4-86.4c20,0,38.5,6.9,53.3,18.3L167.8,434.2z"/>
		<path id="XMLID_26_" class="st2" d="M333,393.5c27.6,0,50,22.6,50,50.2c0,20.2-13.1,41.9-33.8,45.5l34.7,71.4h-35.5l-31.2-66.9
			v-0.2l-16.7-35.9v102.8h-33.3V393.5H333z M335.1,460.1c8.1-1,14.5-7.9,14.5-16.4c0-9.3-7.4-16.9-16.7-16.9h-14.3L335.1,460.1z"/>
		<path id="XMLID_29_" class="st2" d="M567.6,427.1h-77.8v30.7h64.2v33.3h-64.2v36.2h77.1v33.3H456.5V393.8h111.1V427.1z"/>
		<path id="XMLID_31_" class="st2" d="M803.7,551.8v8.8H638.8v-8.8l80.4-158h9.8L803.7,551.8z M755.1,527.2l-31.9-68.1l-34.7,68.1
			H755.1z"/>
		<path id="XMLID_34_" class="st2" d="M970.5,393.8v33.3h-46.2v133.5H891V427.1h-46.4v-33.3H970.5z"/>
		<path id="XMLID_36_" class="st2" d="M1096.6,427.1v100.2h17.6v33.3h-68.8v-33.3h17.8V427.1h-17.8v-33.3h68.8v33.3H1096.6z"/>
		<path id="XMLID_38_" class="st2" d="M1344.6,393.8v8.8l-74.7,158h-9.8l-80.4-158v-8.8H1344.6z M1296,427.1h-66.6l34.7,68.1
			L1296,427.1z"/>
		<path id="XMLID_41_" class="st2" d="M1530.7,427.1h-77.8v30.7h64.2v33.3h-64.2v36.2h77.1v33.3h-110.4V393.8h111.1V427.1z"/>
		<path id="XMLID_43_" class="st2" d="M406.3,712.6h-77.8v30.7h64.2v33.3h-64.2v69.5h-33.3V679.3h111.1V712.6z"/>
		<path id="XMLID_45_" class="st2" d="M544.5,679.1c27.6,0,50,22.6,50,50.2c0,20.2-13.1,41.9-33.8,45.5l34.7,71.4H560l-31.2-66.9
			V779l-16.7-35.9v102.8h-33.3V679.1H544.5z M546.7,745.7c8.1-1,14.5-7.9,14.5-16.4c0-9.3-7.4-16.9-16.7-16.9h-14.3L546.7,745.7z"/>
		<path id="XMLID_48_" class="st2" d="M779.2,712.6h-77.8v30.7h64.2v33.3h-64.2v36.2h77.1v33.3H668V679.3h111.1V712.6z"/>
		<path id="XMLID_50_" class="st2" d="M1015.2,837.3v8.8H850.3v-8.8l80.4-158h9.8L1015.2,837.3z M966.7,812.8l-31.9-68.1l-34.7,68.1
			H966.7z"/>
		<path id="XMLID_53_" class="st2" d="M1129.7,769.7l-12.8,13.1v63.1h-33.3V679.3h33.3v53.8l48.8-53.8h45l-58.3,65.2l59.7,101.4
			h-39.7L1129.7,769.7z"/>
		<path id="XMLID_55_" class="st2" d="M1343.6,775.4c-5.5-1.4-15.7-4-25.2-10.5c-13.3-8.8-20.7-21.7-21.4-37.6
			c-0.7-13.3,3.6-25,12.1-34c12.4-12.9,30.2-16.4,38.8-16.4c24.3,0,37.8,8.8,50,16.7l5.5,3.6l-17.4,28.3l-5.9-3.8
			c-10.7-6.9-17.6-11.4-32.1-11.4c-2.1,0-10.5,1.7-14.8,6.2c-1.4,1.4-3.1,4-2.9,9.5c0.2,8.6,6.2,13.3,21.4,17.1
			c1.9,0.5,3.3,1,4.8,1.4c15.9,5.5,28.3,12.8,36.9,22.1c8.6,9.5,13.1,20.7,13.1,32.6c0,11.7-5,23.8-13.3,33.1
			c-9.8,10.9-23.3,17.1-38.3,17.1c-7.4,0-17.4-0.5-29.3-4c-15-4.8-28.3-13.1-39.7-25.2l24.3-22.8c17.6,18.8,37.4,18.8,44.7,18.8
			c13.8,0,18.3-12.6,18.3-16.9c0-9-10.2-17.4-27.6-23.3l-0.7-0.2L1343.6,775.4z"/>
	</g>
</g>
</svg>
